<?xml version="1.0" encoding="utf-8"?>
<!-- Generator: Adobe Illustrator 23.1.1, SVG Export Plug-In . SVG Version: 6.00 Build 0)  -->
<svg version="1.1" id="Layer_1" xmlns="http://www.w3.org/2000/svg" xmlns:xlink="http://www.w3.org/1999/xlink" x="0px" y="0px"
	 viewBox="0 0 173.8 137" style="enable-background:new 0 0 173.8 137;" xml:space="preserve">
<style type="text/css">
	.st0{fill:#FFFFFF;stroke:#FFFFFF;}
	.st1{fill:#FFFFFF;}
</style>
<title>Group 7</title>
<g>
	<path class="st0" d="M97.7,67.9c-5.2,0-9-2.8-11.4-8.4c-1.2-2.6-1.2-5.4-1.2-8.1c0-2.6,0-5-0.9-7.3c-1.6-4.1-5.7-6.8-10.1-6.8
		c-6.4,0-11.6,6.6-11.6,14.6s5.2,14.6,11.6,14.6c3,0,5.8-1.4,8-4.1c0.2-0.3,0.7-0.3,1-0.1c0.3,0.2,0.3,0.7,0.1,1
		c-2.4,3-5.7,4.6-9.1,4.6c-7.1,0-13-7.2-13-16s5.8-16,13-16c5,0,9.6,3.1,11.4,7.7c1,2.5,1,5.2,1,7.8c0,2.7,0,5.2,1.1,7.6
		c2.2,5,5.6,7.5,10.1,7.5c6.4,0,11.6-6.6,11.6-14.6c0-4.5-1.6-8.7-4.4-11.5c-1.2-1.3-2.8-2.3-4.5-2.9c-0.4-0.1-0.6-0.5-0.4-0.9
		c0.2-0.4,0.5-0.6,0.9-0.4c1.9,0.6,3.6,1.8,5,3.2c3.1,3,4.8,7.6,4.8,12.5C110.7,60.7,104.8,67.9,97.7,67.9"/>
	<g>
		<path class="st1" d="M45,99.8l0.9-0.1l4.4-11.3h1.4L56,99.7l0.9,0.1v1.1h-3.6v-1.1l0.9-0.2l-0.8-2.3h-5l-0.8,2.3l0.9,0.2v1.1H45
			V99.8z M49,95.9h4l-1.9-5.4h-0.2L49,95.9z"/>
		<path class="st1" d="M57.9,92.9v-1.2h1.5v-1.2c0-1,0.3-1.8,0.8-2.3s1.2-0.8,2.2-0.8c0.2,0,0.4,0,0.6,0s0.4,0.1,0.7,0.1l-0.2,1.3
			c-0.1,0-0.2,0-0.4-0.1c-0.1,0-0.3,0-0.4,0c-0.5,0-0.9,0.1-1.1,0.4c-0.2,0.3-0.4,0.7-0.4,1.3v1.2h1.9v1.2h-1.9v6.7l1.4,0.2v1.1
			h-4.5v-1.1l1.4-0.2v-6.7L57.9,92.9L57.9,92.9z"/>
		<path class="st1" d="M64.3,92.7v-1.1h2.9l0.2,1.4c0.3-0.5,0.6-0.8,1-1.1s0.8-0.4,1.3-0.4c0.1,0,0.3,0,0.4,0c0.1,0,0.2,0,0.3,0.1
			l-0.2,1.6l-1-0.1c-0.4,0-0.8,0.1-1.1,0.3c-0.3,0.2-0.5,0.5-0.7,0.9v5.3l1.4,0.2v1.1h-4.5v-1.1l1.4-0.2V93L64.3,92.7z"/>
		<path class="st1" d="M77.6,100.9c-0.1-0.3-0.1-0.5-0.1-0.7s0-0.4-0.1-0.6c-0.3,0.4-0.7,0.8-1.2,1c-0.5,0.3-1,0.4-1.6,0.4
			c-1,0-1.7-0.2-2.2-0.7s-0.8-1.1-0.8-2s0.4-1.6,1.1-2c0.7-0.4,1.7-0.7,2.9-0.7h1.8v-1.1c0-0.5-0.2-1-0.5-1.3
			c-0.3-0.3-0.8-0.5-1.4-0.5c-0.4,0-0.8,0.1-1.1,0.2c-0.3,0.1-0.6,0.3-0.8,0.4l-0.2,1h-1.3v-1.8c0.4-0.3,0.9-0.6,1.5-0.8
			c0.6-0.2,1.2-0.3,2-0.3c1.1,0,1.9,0.3,2.6,0.8s1,1.3,1,2.3V99c0,0.1,0,0.2,0,0.4s0,0.2,0,0.3l0.7,0.1v1.1H77.6z M74.9,99.6
			c0.6,0,1.1-0.1,1.5-0.4c0.5-0.3,0.8-0.6,1-1v-1.5h-1.8c-0.7,0-1.2,0.2-1.6,0.5c-0.4,0.3-0.6,0.7-0.6,1.2c0,0.4,0.1,0.7,0.4,0.9
			C74,99.5,74.4,99.6,74.9,99.6z"/>
		<path class="st1" d="M89.2,89.5l-1.1,0.2l2.8,8.1l0.3,1h0.1l0.3-1l2.8-8.1l-1.1-0.2v-1.1h3.9v1.1l-1,0.1L92,100.8h-1.6l-4.2-11.2
			l-1-0.1v-1.1h3.9L89.2,89.5L89.2,89.5z"/>
		<path class="st1" d="M98,88.6v-1.1h3.1v12l1.4,0.2v1.1H98v-1.1l1.4-0.2V88.8L98,88.6z"/>
		<path class="st1" d="M109.8,100.9c-0.1-0.3-0.1-0.5-0.1-0.7s0-0.4-0.1-0.6c-0.3,0.4-0.7,0.8-1.2,1c-0.5,0.3-1,0.4-1.6,0.4
			c-1,0-1.7-0.2-2.2-0.7s-0.8-1.1-0.8-2s0.4-1.6,1.1-2s1.7-0.7,2.9-0.7h1.7v-1.1c0-0.5-0.2-1-0.5-1.3s-0.8-0.5-1.4-0.5
			c-0.4,0-0.8,0.1-1.1,0.2c-0.3,0.1-0.6,0.3-0.8,0.4l-0.2,1h-1.3v-1.8c0.4-0.3,0.9-0.6,1.5-0.8c0.6-0.2,1.2-0.3,2-0.3
			c1.1,0,1.9,0.3,2.6,0.8c0.7,0.5,1,1.3,1,2.3V99c0,0.1,0,0.2,0,0.4s0,0.2,0,0.3l0.7,0.1v1.1H109.8z M107,99.6
			c0.6,0,1.1-0.1,1.5-0.4c0.5-0.3,0.8-0.6,1-1v-1.5h-1.8c-0.7,0-1.2,0.2-1.6,0.5c-0.4,0.3-0.6,0.7-0.6,1.2c0,0.4,0.1,0.7,0.4,0.9
			C106.2,99.5,106.5,99.6,107,99.6z"/>
		<path class="st1" d="M119.4,100.9c-0.1-0.3-0.1-0.5-0.1-0.7s0-0.4-0.1-0.6c-0.3,0.4-0.7,0.8-1.2,1c-0.5,0.3-1,0.4-1.6,0.4
			c-1,0-1.7-0.2-2.2-0.7s-0.8-1.1-0.8-2s0.4-1.6,1.1-2s1.7-0.7,2.9-0.7h1.7v-1.1c0-0.5-0.2-1-0.5-1.3s-0.8-0.5-1.4-0.5
			c-0.4,0-0.8,0.1-1.1,0.2c-0.3,0.1-0.6,0.3-0.8,0.4l-0.2,1h-1.3v-1.8c0.4-0.3,0.9-0.6,1.5-0.8c0.6-0.2,1.2-0.3,2-0.3
			c1.1,0,1.9,0.3,2.6,0.8s1,1.3,1,2.3V99c0,0.1,0,0.2,0,0.4s0,0.2,0,0.3l0.7,0.1v1.1H119.4z M116.7,99.6c0.6,0,1.1-0.1,1.5-0.4
			c0.5-0.3,0.8-0.6,1-1v-1.5h-1.8c-0.7,0-1.2,0.2-1.6,0.5s-0.6,0.7-0.6,1.2c0,0.4,0.1,0.7,0.4,0.9C115.8,99.5,116.2,99.6,116.7,99.6
			z"/>
		<path class="st1" d="M123,92.7v-1.1h2.9l0.2,1.3c0.3-0.5,0.6-0.8,1-1.1s0.8-0.4,1.3-0.4c0.1,0,0.3,0,0.4,0c0.1,0,0.2,0,0.3,0.1
			l-0.2,1.6l-1-0.1c-0.4,0-0.8,0.1-1.1,0.3c-0.3,0.2-0.5,0.5-0.7,0.9v5.3l1.4,0.2v1.1H123v-1.1l1.4-0.2v-6.6L123,92.7z"/>
	</g>
</g>
</svg>
