<?xml version="1.0" encoding="utf-8"?>
<!-- Generator: Adobe Illustrator 23.1.1, SVG Export Plug-In . SVG Version: 6.00 Build 0)  -->
<svg version="1.1" id="Layer_1" xmlns="http://www.w3.org/2000/svg" xmlns:xlink="http://www.w3.org/1999/xlink" x="0px" y="0px"
	 viewBox="0 0 152 40" style="enable-background:new 0 0 152 40;" xml:space="preserve">
<style type="text/css">
	.st0{fill-rule:evenodd;clip-rule:evenodd;fill:#FFFFFF;}
	.st1{filter:url(#Adobe_OpacityMaskFilter);}
	.st2{mask:url(#b_1_);fill-rule:evenodd;clip-rule:evenodd;fill:#FFFFFF;}
</style>
<title>Logo</title>
<g>
	<path class="st0" d="M5.4,25.6v9.5h1.4c1.2,0,2-0.1,2.5-0.3c0.5-0.3,0.9-0.7,1.2-1.3c0.3-0.6,0.4-1.7,0.4-3.1
		c0-1.9-0.3-3.1-0.9-3.8c-0.6-0.7-1.7-0.9-3.1-0.9C6.9,25.6,5.4,25.6,5.4,25.6z M0,21.5h8.2c1.6,0,2.9,0.1,3.9,0.5s1.8,1,2.5,1.8
		c0.7,0.8,1.2,1.8,1.4,2.9c0.3,1.1,0.4,2.2,0.4,3.5c0,1.9-0.2,3.4-0.7,4.5c-0.4,1.1-1,1.9-1.8,2.7c-0.7,0.7-1.6,1.1-2.5,1.4
		c-1.1,0.3-2.2,0.4-3.3,0.4H0V21.5L0,21.5z M23.1,30.3c0,1.8,0.3,3.1,1,3.9c0.7,0.8,1.6,1.2,2.8,1.2c1.2,0,2.1-0.4,2.8-1.2
		c0.7-0.8,1-2.2,1-4.2c0-1.7-0.3-2.9-1-3.7c-0.7-0.8-1.6-1.2-2.8-1.2c-1.1,0-2,0.4-2.7,1.2C23.5,27.2,23.1,28.5,23.1,30.3
		 M17.6,30.3c0-2.9,0.8-5.2,2.5-6.9c1.6-1.6,3.9-2.5,6.8-2.5c3,0,5.3,0.8,6.9,2.4c1.6,1.6,2.4,3.9,2.4,6.8c0,2.1-0.4,3.8-1.1,5.2
		c-0.7,1.3-1.8,2.4-3.1,3.1c-1.3,0.7-3,1.1-5,1.1c-2,0-3.7-0.3-5-1c-1.3-0.6-2.4-1.7-3.2-3.1C18,34.2,17.6,32.4,17.6,30.3 M43,30.3
		c0,1.8,0.3,3.1,1,3.9c0.7,0.8,1.6,1.2,2.8,1.2c1.2,0,2.1-0.4,2.8-1.2c0.7-0.8,1-2.2,1-4.2c0-1.7-0.3-2.9-1-3.7
		c-0.7-0.8-1.6-1.2-2.8-1.2c-1.1,0-2,0.4-2.7,1.2C43.3,27.2,42.9,28.5,43,30.3 M37.4,30.3c0-2.9,0.8-5.2,2.5-6.9s3.9-2.5,6.8-2.5
		c3,0,5.3,0.8,6.9,2.4c1.6,1.6,2.4,3.9,2.4,6.8c0,2.1-0.4,3.8-1.1,5.2c-0.7,1.3-1.8,2.4-3.1,3.1c-1.3,0.7-3,1.1-5,1.1
		c-2,0-3.7-0.3-5-1c-1.3-0.6-2.4-1.7-3.2-3.1C37.8,34.2,37.4,32.4,37.4,30.3 M63,25.6v9.5h1.2c1.2,0,2-0.1,2.5-0.3
		c0.5-0.3,0.9-0.7,1.2-1.3c0.3-0.6,0.4-1.7,0.4-3.1c0-1.9-0.3-3.1-0.9-3.8c-0.6-0.7-1.7-0.9-3.1-0.9L63,25.6L63,25.6z M57.6,21.5h8
		c1.6,0,2.9,0.1,3.9,0.5c1,0.4,1.8,1,2.5,1.8c0.7,0.8,1.2,1.8,1.4,2.9c0.3,1.1,0.4,2.2,0.4,3.5c0,1.9-0.2,3.4-0.7,4.5
		c-0.4,1.1-1,1.9-1.8,2.7c-0.7,0.7-1.6,1.1-2.5,1.4c-1.1,0.3-2.2,0.4-3.3,0.4h-8L57.6,21.5L57.6,21.5z M75.3,21.5h14.9v3.4h-9.5v3.4
		h8.8v3.4h-8.8v3.4h10.2v4.1H75.3L75.3,21.5z M92.2,21.5h7.2l2.8,11l2.8-11h7.5v17.6h-4.7V25.6l-3.6,13.6h-4.1l-3.8-13.6v13.6h-4.1
		L92.2,21.5z M125.3,32.4l-2-6.5l-2,6.5H125.3z M126.4,36.5h-6.3l-0.9,2.7h-5.7l6.8-17.6h6.1l6.8,17.6h-5.8
		C127.3,39.2,126.4,36.5,126.4,36.5z M134.2,21.5h5.2l6.3,9.7v-9.7h5.4v17.6H146l-6.3-9.8v9.8h-5.4V21.5z M29.7,12.9
		c-0.2-0.4-0.5-0.7-0.9-1c-0.4-0.3-0.9-0.5-1.3-0.7c-0.5-0.2-1-0.3-1.5-0.4c-1.6-0.2-3.1-0.8-4.5-1.5c-0.1-0.1-0.2-0.2-0.4-0.4
		S21,8.5,21,8.3c0-0.7,0.1-1.4,0.3-2.1c0.2-0.7,0.5-1.2,0.9-1.6c0.6-0.7,1.6-1.2,3.1-1.7c1.5-0.5,3.2-0.7,5.1-0.7
		c1.1,0,2,0.1,2.6,0.3S34,2.8,34,3.2c0,0.6-0.1,1-0.2,1.4s-0.3,0.5-0.5,0.6c-0.2,0.1-0.5,0.2-1,0.4C31.8,5.8,31.3,6,31,6.2
		c-0.4,0.2-0.7,0.4-0.9,0.5C29.8,6.9,29.6,7,29.6,7c-0.1,0-0.1,0-0.1-0.1c0-0.1,0.1-0.3,0.4-0.6c0.3-0.3,0.6-0.5,1-0.7
		c0.4-0.2,0.6-0.4,0.6-0.4C31.5,5,31.3,5,30.8,5c-1.5,0-2.8,0.1-4,0.4c-1.2,0.3-2.2,0.6-2.9,1c-0.7,0.4-1.1,0.9-1.1,1.3
		c0,0.3,0.1,0.5,0.4,0.6c0.3,0.1,0.9,0.3,2,0.6c0.9,0.2,1.8,0.5,2.7,0.9c1.1,0.5,2,1,2.5,1.5c0.5,0.5,0.8,1.1,0.8,1.8
		c0,0.4-0.1,0.9-0.3,1.4c-0.2,0.5-0.6,0.9-1,1.2c-0.4,0.4-0.9,0.7-1.4,0.9c-0.6,0.2-1.2,0.4-1.8,0.6c-0.8,0.2-1.5,0.3-2.3,0.4
		c-0.8,0.1-1.6,0.1-2.4,0.1c-1.4,0-2.5-0.1-3.3-0.4s-1.3-0.7-1.3-1.2c0-0.2,0.1-0.6,0.4-1.1c0.3-0.5,0.6-0.8,1-1
		c0.3-0.1,0.7-0.2,1-0.2c0.3,0,0.5,0,0.5,0.1c0,0,0,0,0,0.1c0,0-0.1,0-0.1,0.1l-0.1,0c-0.2,0.1-0.3,0.1-0.4,0.1
		c-0.1,0-0.2,0.1-0.2,0.1c-0.1,0-0.1,0.1-0.1,0.1c0,0.2,0.8,0.2,2.4,0.2c1.4,0,2.6-0.1,3.5-0.2c0.9-0.1,1.7-0.3,2.4-0.6
		C28.5,13.7,29.2,13.4,29.7,12.9"/>
	<path class="st0" d="M38.6,12.6v0.8c-1.4,0.8-1.7,1.5-2.2,1.9c-0.5,0.5-1.1,0.8-1.6,1.1c-0.5,0.3-1,0.4-1.4,0.4
		c-0.4,0-0.9-0.2-1.2-0.5c-0.4-0.4-0.7-0.8-0.9-1.3c-0.2-0.6-0.3-1.2-0.3-1.8c0-0.5,0.1-1,0.4-1.4c0.2-0.4,0.7-1,1.4-1.6
		c0.8-0.8,1.5-1.4,2.2-1.8c0.7-0.4,1.2-0.6,1.6-0.6c0.3,0,0.5,0.1,0.7,0.3c0.2,0.2,0.3,0.4,0.3,0.7c0,0.3-0.1,0.6-0.4,1.1
		c-0.2,0.4-0.5,0.8-0.9,1.2c-0.3,0.3-0.6,0.5-0.8,0.5c-0.2,0-0.3-0.1-0.3-0.3c0-0.1,0-0.2,0-0.3c0-0.1,0-0.1-0.1-0.2
		c-0.1,0-0.1,0-0.2,0.1c-0.8,0.6-1.3,0.9-1.6,1.2c-0.3,0.2-0.5,0.5-0.7,0.7c-0.2,0.2-0.3,0.5-0.3,0.7c0,0.5,0.1,0.8,0.4,1.1
		c0.3,0.3,0.7,0.4,1.2,0.4c0.5,0,1.3-0.2,2-0.6C36.7,13.9,37.3,13.3,38.6,12.6"/>
	<g transform="translate(37.966 .287)">
		<defs>
			<filter id="Adobe_OpacityMaskFilter" filterUnits="userSpaceOnUse" x="0.1" y="0.4" width="9.6" height="15.7">
				<feColorMatrix  type="matrix" values="1 0 0 0 0  0 1 0 0 0  0 0 1 0 0  0 0 0 1 0"/>
			</filter>
		</defs>
		<mask maskUnits="userSpaceOnUse" x="0.1" y="0.4" width="9.6" height="15.7" id="b_1_">
			<g class="st1">
				<path id="a_1_" class="st0" d="M0.1,0.4h9.6v15.7H0.1L0.1,0.4L0.1,0.4z"/>
			</g>
		</mask>
		<path class="st2" d="M8.8,12.3V13c-0.7,0.7-1.1,1.3-1.6,1.7c-0.5,0.4-0.9,0.8-1.2,1c-0.4,0.2-0.7,0.3-0.9,0.3
			c-0.6,0-0.9-0.4-0.9-1.1c0-0.6,0.2-1.3,0.6-2c0.4-0.8,0.9-1.7,1.7-2.7c-0.4,0.2-0.7,0.4-1,0.7c-0.3,0.2-0.6,0.5-0.8,0.8
			c-0.2,0.3-0.4,0.5-0.6,0.7c-0.5,0.6-1,1.2-1.5,1.8c-0.5,0.6-0.8,1-1,1.2c-0.2,0.2-0.3,0.3-0.5,0.3c-0.6,0-0.9-0.8-0.9-2.3
			c0-0.5,0.1-1,0.2-1.6c0.1-0.6,0.6-1.4,1.2-2.4c1.4-2.1,2.6-3.8,3.5-5.1c1-1.3,1.8-2.3,2.4-3c0.6-0.7,1.1-1,1.3-1
			c0.3,0,0.5,0.1,0.7,0.2c0.2,0.1,0.3,0.2,0.3,0.3c0,0.2-0.1,0.5-0.4,1C9.1,2.3,8.6,3,7.9,3.9c-0.5,0.7-1,1.4-1.5,2.1
			c-0.3,0.4-0.7,1-1.3,1.8c-0.6,0.8-1,1.4-1.5,2S2.7,11.1,2,11.8v1.4c0.7-1.2,1.8-2.1,2.6-2.9C5.4,9.6,6,9,6.5,8.7
			c0.5-0.4,0.9-0.6,1.1-0.6c0.2,0,0.4,0.1,0.6,0.4C8.5,8.8,8.6,9,8.6,9.2c0,0.1,0,0.2-0.1,0.3C8,10,7.6,10.6,7.1,11.2
			c-0.3,0.4-0.5,0.8-0.8,1.2c-0.2,0.4-0.3,0.7-0.3,0.9c0,0.4,0,0.6,0.4,0.6C6.8,13.8,8.1,13.3,8.8,12.3"/>
	</g>
	<path class="st0" d="M51.9,7.3c-0.2,0-0.4-0.1-0.6-0.2c-0.2-0.1-0.3-0.3-0.3-0.6c0-0.3,0.2-0.7,0.5-1.2c0.3-0.4,0.7-0.6,1-0.6
		c0.2,0,0.4,0.1,0.6,0.2c0.2,0.1,0.2,0.4,0.2,0.6c0,0.3-0.2,0.7-0.5,1.1C52.7,7.1,52.3,7.3,51.9,7.3 M52.9,12.6v0.9
		c-0.7,1-1.5,1.7-2.2,2.2c-0.7,0.5-1.3,0.8-1.7,0.8c-0.6,0-1.1-0.3-1.5-1C47.2,14.7,47,14,47,13.2c0-0.3,0-0.6,0.1-0.9
		c0.1-0.3,0.1-0.5,0.2-0.7c0.1-0.2,0.2-0.5,0.5-0.9c1.1-1.7,2.1-2.6,3.1-2.6c0.5,0,0.7,0.2,0.7,0.6c0,0.3-0.2,0.6-0.5,1.2
		c-0.3,0.5-0.6,0.9-0.8,1.1c-0.7,0.7-1.1,1.1-1.3,1.4c-0.2,0.3-0.3,0.6-0.3,0.9c0,0.3,0.1,0.5,0.3,0.7c0.2,0.2,0.5,0.3,0.8,0.3
		c0.4,0,0.8-0.1,1.3-0.4C51.7,13.5,52.3,13.1,52.9,12.6"/>
	<path class="st0" d="M54.8,10.3c0.4-0.4,0.8-0.9,1.2-1.4c0.4-0.5,0.7-1.1,1.1-1.6c0.3-0.5,0.6-1,0.8-1.6c0.2-0.5,0.3-0.8,0.3-1.1
		c0-0.2-0.1-0.3-0.2-0.3c0,0-0.1,0-0.3,0.1c-0.5,0.4-1,1.2-1.6,2.3C55.4,8,55,9.1,54.8,10.3 M58.3,12.5v0.9c-1.4,2.2-3,3.3-4,3.3
		c-0.6,0-1-0.3-1.3-0.9c-0.3-0.6-0.5-1.4-0.5-2.4c0-0.8,0.2-1.8,0.6-2.9C53.4,9.3,54,8.1,54.6,7c0.6-1.1,1.3-2.1,2-3
		c0.7-0.8,1.3-1.4,1.9-1.8c0.2-0.1,0.4-0.2,0.6-0.2c0.2,0,0.3,0.1,0.3,0.2c0.1,0.1,0.1,0.4,0.1,0.8c0,1.1-0.4,2.4-1.3,4
		c-0.9,1.6-2.1,3.2-3.7,4.9c-0.1,0.4-0.1,0.7-0.1,0.9c0,0.5,0.1,0.9,0.3,1.2c0.2,0.3,0.5,0.5,0.9,0.5c0.2,0,0.4-0.1,0.6-0.2
		c0.2-0.2,0.5-0.3,0.7-0.6C57.1,13.6,57.6,13.1,58.3,12.5"/>
	<path class="st0" d="M64.4,9.7c-0.7,0.2-1.5,0.6-2.5,1.1c-0.9,0.5-1.5,0.9-1.7,1.1c-0.2,0.2-0.3,0.5-0.5,0.9
		c-0.1,0.4-0.2,0.8-0.2,1c0,0.1,0,0.2,0.1,0.3c0.1,0.1,0.2,0.1,0.3,0.1c0.1,0,0.2,0,0.4-0.1c0.1-0.1,0.4-0.3,0.7-0.6
		c0.3-0.3,0.5-0.5,0.6-0.5c0.1-0.1,0.4-0.4,0.9-0.8c0.5-0.4,0.8-0.7,1-0.9c0.2-0.2,0.4-0.5,0.5-0.7C64.3,10.4,64.4,10.1,64.4,9.7
		 M63.6,12.6c-0.6,0.7-1.2,1.4-1.9,2c-0.5,0.6-1,1-1.3,1.2c-0.3,0.3-0.6,0.4-0.7,0.4c-0.2,0-0.4-0.2-0.7-0.5
		c-0.3-0.3-0.5-0.8-0.7-1.3c-0.2-0.5-0.3-1-0.3-1.6c0-0.8,0.4-1.5,1.1-2.3c0.7-0.8,1.6-1.4,2.5-1.9c0.9-0.5,1.7-0.8,2.1-0.8
		c0.4,0,0.8,0.2,1.1,0.7c0.5-1.1,1.1-2.3,1.7-3.4c0.5-1,1-1.7,1.4-2.2s0.6-0.7,0.8-0.7c0.2,0,0.3,0.1,0.5,0.3
		c0.1,0.2,0.2,0.4,0.2,0.6c0,0.4-0.3,1.1-0.9,2.1c-0.6,1-1.2,2-1.8,2.9c-0.6,0.9-1.1,1.8-1.5,2.8c-0.4,0.9-0.6,1.8-0.6,2.5
		c0,0.7,0.2,1.1,0.7,1.1c0.3,0,0.7-0.2,1.1-0.5c0.4-0.3,1.2-0.8,1.9-1.6v0.9c-2,2.2-3.1,3.3-4,3.3c-0.4,0-0.7-0.1-0.9-0.4
		c-0.2-0.3-0.3-0.7-0.3-1.3C63.3,14.3,63.4,13.5,63.6,12.6"/>
	<path class="st0" d="M70.3,12.2c0.7-0.3,1.3-0.6,1.8-1c0.5-0.4,0.9-0.8,1.1-1.2c0.2-0.4,0.4-0.6,0.4-0.8c0-0.2-0.1-0.3-0.2-0.3
		c-0.1,0-0.4,0.1-0.7,0.3c-0.3,0.2-0.7,0.4-1,0.7c-0.3,0.3-0.6,0.6-0.9,1C70.5,11.3,70.3,11.8,70.3,12.2 M69.8,13v0.3
		c0,0.5,0.3,0.8,0.5,1.1c0.2,0.3,0.6,0.4,1,0.4c0.4,0,0.8-0.1,1.2-0.3c0.4-0.2,0.8-0.4,1.2-0.7c0.4-0.3,0.8-0.7,1.5-1.2v0.7
		c-0.7,1.1-1.7,1.9-2.5,2.5c-0.8,0.6-1.6,0.9-2.4,0.9c-0.7,0-1.2-0.3-1.7-0.8c-0.4-0.5-0.6-1.3-0.6-2.2c0-0.8,0.2-1.6,0.6-2.2
		c0.4-0.7,1-1.4,1.9-2.1c0.6-0.5,1.2-0.9,1.8-1.2C73,7.8,73.5,7.6,74,7.6c0.4,0,0.7,0.1,0.9,0.3c0.2,0.2,0.3,0.4,0.3,0.8
		c0,0.5-0.2,1-0.6,1.5c-0.4,0.5-1.1,1-1.9,1.5C72,12.1,71.2,12.6,69.8,13"/>
	<path class="st0" d="M75.3,13.5v-0.8c0.7-0.5,0.7-0.9,0.9-1.3c-0.3-0.1-0.4-0.2-0.6-0.3c-0.1-0.1-0.2-0.3-0.2-0.6
		c0-0.3,0.1-0.6,0.4-1.1C76,9,76.3,8.6,76.7,8.3c0.3-0.4,0.7-0.6,0.9-0.7c0.1-0.1,0.2-0.1,0.3-0.1c0.2,0,0.2,0.1,0.2,0.2
		c0,0.1-0.1,0.4-0.4,0.8c1.6-0.3,2.6-0.4,3.1-0.4c0.2,0,0.3,0,0.3,0c0.1,0.1,0.2,0.2,0.3,0.5c0.1,0.3,0.1,0.5,0.1,0.8
		c0,0.2-0.1,0.3-0.2,0.5c-0.1,0.2-0.4,0.5-0.8,0.8c-0.4,0.4-0.8,0.9-1.1,1.5c-0.3,0.5-0.4,0.9-0.4,1.2c0,0.4,0.4,0.6,0.8,0.6
		c0.5,0,1.3-0.5,2.6-1.5v0.8C82,14,81.4,14.6,81,15c-0.4,0.4-0.9,0.7-1.2,0.9c-0.4,0.2-0.7,0.3-1,0.3c-0.3,0-0.6-0.1-0.8-0.5
		c-0.2-0.3-0.3-0.7-0.3-1.3c0-0.3,0.1-0.7,0.3-1.2c0.2-0.5,0.5-1,0.8-1.4c0.3-0.5,0.7-1,1.1-1.5c-0.2,0-0.5,0.1-0.7,0.1
		c-0.3,0.1-0.6,0.1-0.9,0.2c-0.3,0.1-0.5,0.1-0.7,0.1C76.9,11.8,75.9,12.7,75.3,13.5"/>
	<path class="st0" d="M88.6,14c0,0.4,0.1,0.5,0.4,0.5c0.3,0,1-0.6,1.8-1.8c0-0.1,0-0.3,0-0.4c0-0.4,0.2-0.9,0.5-1.6
		c0.3-0.6,0.7-1.1,1.2-1.6c0.4-0.5,0.8-0.7,1-0.7c0.3,0,0.4,0.3,0.4,1c0,0.5-0.1,1.1-0.3,1.6c-0.3,0.6-0.6,1.1-1,1.6
		c0.1,0.1,0.2,0.1,0.2,0.2s0.2,0.1,0.3,0.2c0.1,0.1,0.2,0.1,0.3,0.1c0.3,0,0.3-0.2,1-0.6v0.8c-0.7,0.6-1.1,1-1.6,1
		c-0.3,0-0.5,0-0.6-0.1c-0.2-0.1-0.4-0.2-0.6-0.4c-1.4,1.7-2.5,2.6-3.3,2.6c-0.3,0-0.5-0.1-0.7-0.3c-0.2-0.2-0.3-0.5-0.3-0.9
		c0-0.2,0.1-0.9,0.2-2.1c-0.3,0.4-0.7,0.8-1.1,1.3c-0.4,0.5-0.7,0.8-1,1.1c-0.2,0.2-0.4,0.4-0.7,0.6c-0.2,0.1-0.4,0.2-0.7,0.2
		c-0.2,0-0.5-0.1-0.8-0.4s-0.5-0.6-0.8-1.1c-0.2-0.5-0.3-0.9-0.3-1.4c0-0.5,0.1-0.9,0.2-1.3c0.1-0.4,0.5-0.9,1-1.6
		c0.4-0.5,0.8-1.1,1.2-1.5c0.4-0.4,0.7-0.7,1-0.9c0.3-0.2,0.5-0.3,0.7-0.3c0.1,0,0.3,0,0.4,0.1C86.9,7.8,87,7.9,87.2,8
		c0.1,0.1,0.2,0.2,0.2,0.3c0,0.3-0.1,0.7-0.4,1.1c-0.3,0.5-0.7,1-1.2,1.5c-0.6,0.6-1.2,1.2-1.8,1.7c-0.2,0.5-0.3,1-0.3,1.3
		c0,0.1,0,0.2,0.1,0.3c0.1,0.1,0.1,0.1,0.2,0.1c0.3,0,0.9-0.5,1.9-1.5c0.9-1,2.1-2.5,3.6-4.6c0.1-0.1,0.2-0.1,0.4-0.1
		c0.2,0,0.4,0,0.5,0.1s0.2,0.2,0.2,0.4c0,0.1-0.2,0.5-0.6,1.4c-0.4,0.8-0.8,1.6-1.1,2.3C88.7,13.1,88.6,13.6,88.6,14"/>
	<path class="st0" d="M96.2,12.2c0.7-0.3,1.3-0.6,1.8-1c0.5-0.4,0.9-0.8,1.1-1.2c0.2-0.4,0.4-0.6,0.4-0.8c0-0.2-0.1-0.3-0.2-0.3
		c-0.1,0-0.4,0.1-0.7,0.3c-0.3,0.2-0.6,0.4-1,0.7c-0.3,0.3-0.6,0.6-0.9,1C96.5,11.3,96.3,11.8,96.2,12.2 M96.3,13v0.3
		c0,0.5,0,0.8,0.3,1.1c0.2,0.3,0.5,0.4,0.9,0.4c0.4,0,0.8-0.1,1.2-0.3c0.4-0.2,0.7-0.4,1.1-0.7c0.4-0.3,1.3-0.7,1.3-1.2v0.7
		c-0.7,1.1-1.6,1.9-2.4,2.5c-0.8,0.6-1.5,0.9-2.3,0.9c-0.7,0-1.2-0.3-1.6-0.8c-0.4-0.5-0.6-1.3-0.6-2.2c0-0.8,0.2-1.6,0.6-2.2
		s1-1.4,1.9-2.1c0.6-0.5,1.2-0.9,1.8-1.2c0.6-0.3,1.1-0.4,1.6-0.4c0.4,0,0.7,0.1,0.9,0.3c0.2,0.2,0.3,0.4,0.3,0.8
		c0,0.5-0.2,1-0.6,1.5c-0.4,0.5-0.9,1-1.6,1.5C98.2,12.1,96.9,12.6,96.3,13"/>
	<path class="st0" d="M101,13.5v-0.8c0.7-0.5,0.8-0.9,1.1-1.3c-0.2-0.1-0.4-0.2-0.5-0.3c-0.1-0.1-0.2-0.3-0.2-0.6
		c0-0.3,0.1-0.6,0.4-1.1s0.5-0.8,0.9-1.2c0.3-0.4,0.7-0.6,0.9-0.7c0.1-0.1,0.2-0.1,0.3-0.1c0.2,0,0.2,0.1,0.2,0.2
		c0,0.1-0.1,0.4-0.4,0.8c1.6-0.3,2.6-0.4,3.1-0.4c0.2,0,0.3,0,0.3,0c0.1,0.1,0.2,0.2,0.3,0.5c0.1,0.3,0.1,0.5,0.1,0.8
		c0,0.2-0.1,0.3-0.2,0.5c-0.2,0.3-0.5,0.6-0.8,0.8c-0.4,0.4-0.8,0.9-1.1,1.5c-0.3,0.5-0.4,0.9-0.4,1.2c0,0.4,0.3,0.6,0.7,0.6
		c0.5,0,1.2-0.5,2.5-1.5v0.8c-0.5,0.6-1.1,1.1-1.7,1.6c-0.4,0.3-0.8,0.7-1.2,0.9c-0.4,0.2-0.7,0.3-1,0.3c-0.3,0-0.6-0.1-0.8-0.5
		c-0.2-0.3-0.3-0.7-0.3-1.3c0-0.3,0.1-0.7,0.3-1.2c0.2-0.5,0.5-1,0.8-1.4c0.3-0.5,0.7-1,1.1-1.5c-0.2,0-0.5,0.1-0.7,0.1
		c-0.3,0.1-0.6,0.1-0.9,0.2c-0.3,0.1-0.6,0.1-0.8,0.1C102.7,11.8,102.4,12.7,101,13.5"/>
	<path class="st0" d="M112.6,13.2c0.3-0.2,0.7-0.5,1.1-0.9c0.4-0.4,0.8-0.8,1.1-1.3c0.3-0.4,0.5-0.8,0.5-1.1c0-0.1-0.1-0.2-0.2-0.2
		c-0.3,0-0.8,0.3-1.5,0.9c-0.7,0.6-1.4,1.3-2.1,2.2C111.8,12.7,112.2,12.9,112.6,13.2 M117.3,12.6v0.8c-0.7,1-1.6,1.8-2.2,2.3
		c-0.6,0.5-1.1,0.8-1.5,0.8c-0.4,0-0.7-0.1-1-0.3c-0.3-0.3-0.6-0.6-0.8-0.9c-0.2-0.4-0.5-1-0.9-1.7c-0.4,0.5-0.8,1-1.1,1.4
		c-0.3,0.4-0.5,0.7-0.7,0.9c-0.1,0.1-0.2,0.2-0.3,0.2c-0.2,0-0.4-0.1-0.5-0.4c-0.1-0.3-0.1-0.7-0.1-1.2c0-0.7,0.1-1.4,0.3-2.1
		c0.2-0.7,0.4-1.3,0.7-1.9c0.3-0.6,0.7-1.3,1.2-2c0.5-0.7,1.1-1.5,1.7-2.3c0.7-0.9,1.5-1.8,2.2-2.7c0.6-0.7,1.2-1.2,1.6-1.6
		c0.5-0.4,0.8-0.5,1.2-0.5c0.4,0,0.6,0.2,0.6,0.5c0,0.3-0.8,1.3-2.2,3.1c-1.4,1.8-3.5,4.3-6.2,7.4v1c2-1.9,3.3-3.3,4.4-4.3
		c1.1-0.9,2-1.4,2.6-1.4c0.2,0,0.5,0.1,0.6,0.4c0.1,0.3,0.2,0.6,0.2,1c0,0.8-0.3,1.5-1,2.1c-0.7,0.7-1.7,1.4-3,2.3
		c0.2,0.4,0.4,0.6,0.6,0.8c0.2,0.2,0.4,0.3,0.7,0.2c0.2,0,0.5-0.1,0.8-0.2c0.3-0.2,0.6-0.4,0.9-0.6
		C116.2,13.6,116.6,13.1,117.3,12.6"/>
	<path class="st0" d="M119.2,12.2c0.7-0.3,1.3-0.6,1.8-1s0.9-0.8,1.1-1.2c0.2-0.4,0.4-0.6,0.4-0.8c0-0.2-0.1-0.3-0.2-0.3
		c-0.1,0-0.4,0.1-0.7,0.3c-0.3,0.2-0.6,0.4-1,0.7c-0.3,0.3-0.6,0.6-0.9,1C119.4,11.3,119.3,11.8,119.2,12.2 M119.3,13v0.3
		c0,0.5,0,0.8,0.2,1.1c0.2,0.3,0.5,0.4,0.8,0.4c0.4,0,0.8-0.1,1.2-0.3c0.4-0.2,0.7-0.4,1.1-0.7c0.4-0.3,0.7-0.7,1.4-1.2v0.7
		c-0.7,1.1-1.6,1.9-2.4,2.5c-0.8,0.6-1.5,0.9-2.3,0.9c-0.7,0-1.2-0.3-1.6-0.8c-0.4-0.5-0.6-1.3-0.6-2.2c0-0.8,0.2-1.6,0.6-2.2
		s1-1.4,1.9-2.1c0.6-0.5,1.2-0.9,1.8-1.2c0.6-0.3,1.1-0.4,1.6-0.4c0.4,0,0.7,0.1,0.9,0.3c0.2,0.2,0.3,0.4,0.3,0.8
		c0,0.5-0.2,1-0.6,1.5c-0.4,0.5-0.8,1-1.6,1.5C121.2,12.1,120,12.6,119.3,13 M132.2,10.4c-1.4,1.5-2.1,2.6-2.1,3.2
		c0,0.3,0.1,0.5,0.4,0.5c0.2,0,0.4-0.1,0.8-0.4s0.9-0.7,1.6-1.3v0.8c-0.7,1.1-1.8,1.9-2.4,2.4c-0.6,0.5-1,0.7-1.4,0.7
		c-0.6,0-0.9-0.4-0.9-1.3c0-0.3,0.1-0.5,0.1-0.7s0.2-0.5,0.3-0.8c0.1-0.3,0.4-0.6,0.6-1.1c0.3-0.5,0.6-1,1-1.7
		c-0.4,0.2-1,0.7-1.7,1.4c-0.4,0.4-0.8,0.8-1.1,1.2c-0.3,0.4-0.6,0.8-1,1.3c-0.3,0.5-0.6,0.8-0.8,0.9c-0.2,0.2-0.3,0.2-0.5,0.2
		c-0.3,0-0.5-0.3-0.7-0.8c-0.2-0.5-0.3-1.1-0.3-1.8c0-0.4,0-0.8,0.1-1s0.3-0.6,0.6-1c0.5-0.8,1-1.4,1.4-1.8c0.4-0.4,0.8-0.6,1.1-0.6
		c0.3,0,0.5,0,0.6,0.1c0.2,0.1,0.2,0.2,0.2,0.4c0,0.1,0,0.2-0.1,0.2c0,0.1-0.1,0.2-0.2,0.2c-0.1,0.1-0.2,0.2-0.4,0.4
		c-1.2,1.4-1.9,2.3-1.9,2.7c0,0.2,0.1,0.3,0.2,0.3c0.1,0,0.3-0.2,0.5-0.5c0.3-0.3,0.6-0.7,1.1-1.2c0.4-0.5,0.9-1,1.5-1.5
		c0.6-0.6,1.3-1.1,2-1.5c0.4-0.3,0.8-0.4,1-0.4c0.1,0,0.2,0.2,0.4,0.5c0.1,0.3,0.2,0.7,0.2,1.1C132.7,9.8,132.6,10.1,132.2,10.4"/>
</g>
</svg>
