<?xml version="1.0" encoding="utf-8"?>
<!-- Generator: Adobe Illustrator 23.1.1, SVG Export Plug-In . SVG Version: 6.00 Build 0)  -->
<svg version="1.1" id="Layer_1" xmlns="http://www.w3.org/2000/svg" xmlns:xlink="http://www.w3.org/1999/xlink" x="0px" y="0px"
	 viewBox="0 0 216.1 50.3" style="enable-background:new 0 0 216.1 50.3;" xml:space="preserve">
<style type="text/css">
	.st0{fill:#68B435;}
	.st1{fill:#3C3C3B;}
</style>
<g>
	<g>
		<g>
			<path class="st0" d="M213.1,47.2c-0.1,0-0.3,0-0.5,0c-0.6,0-4.9,0-6.9,0V46c1.9,0,6.3,0,6.9,0c0.7,0,0.7,0,0.9,0
				c1.1-0.1,1.3-0.3,1.4-1.3c0.1-0.9-0.1-14.5-0.2-15.9c0-0.6-0.3-1.1-0.8-1.6c-0.3-0.3-0.5-0.7-0.5-1.1c-0.2-3.7-0.7-7.5-1.5-11.3
				c-0.1-0.7-0.4-1.4-0.7-2.1l-0.1-0.1c-0.4-1.2-1.4-1.9-3-2.3c-1.3-0.3-2.9-0.7-4.6-0.9c-1.2-0.2-3.5-0.4-5.1-0.6
				c-1.4-0.2-2.1-0.2-2.2-0.3c-0.2,0-0.7-0.2-1-0.6c-2.5-3.3-6.1-5.3-10.8-6.1c-1.3-0.2-2.6-0.4-3.8-0.5l-1.2-0.1
				c-0.2,0-0.3,0-0.3,0c0,0,0,0.1,0,0.3l0,44.6l4.2,0l0,1.1l-5.3,0l0-45.8c0-0.5,0.1-0.9,0.4-1.2c0.3-0.3,0.8-0.3,1.2-0.2l1.2,0.1
				c1.3,0.1,2.6,0.3,3.9,0.5c5,0.9,8.8,3,11.5,6.5c0,0,0.2,0.1,0.3,0.2c0.1,0,1.2,0.1,2.1,0.3c1.7,0.2,4,0.5,5.2,0.6
				c1.7,0.3,3.3,0.6,4.7,0.9c2,0.5,3.2,1.4,3.8,3l0.1,0.1c0.3,0.7,0.5,1.5,0.7,2.3c0.8,3.8,1.3,7.6,1.5,11.4c0,0.1,0.1,0.3,0.2,0.4
				c0.7,0.7,1.1,1.5,1.1,2.3c0.1,1.5,0.3,15.2,0.2,16.1c-0.1,1.5-0.9,2.2-2.5,2.3C213.5,47.2,213.4,47.2,213.1,47.2z"/>
		</g>
	</g>
	<g>
		<g>
			<path class="st0" d="M186.4,47.1h-0.5c-0.1,0-0.2-0.1-0.2-0.2v-1.1c0-0.1,0.1-0.2,0.2-0.2h0.5c0.1,0,0.2,0.1,0.2,0.2v1.1
				C186.6,47,186.5,47.1,186.4,47.1z"/>
			<path class="st0" d="M195.8,47.1h-0.6c-0.1,0-0.2-0.1-0.2-0.2v-5c0-2-0.7-2.4-2.1-2.4c-0.5,0-3.4,0-3.7,0.1v7.3
				c0,0.1-0.1,0.2-0.2,0.2h-0.6c-0.1,0-0.2-0.1-0.2-0.2v-7.7c0-0.3,0.1-0.4,0.3-0.4c0.6-0.1,3.8-0.1,4.4-0.1c2,0,3.1,0.8,3.1,3.3v5
				C196,47,195.9,47.1,195.8,47.1z"/>
			<path class="st0" d="M203.4,47.1c-0.3,0-2.3,0.1-3.3,0.1c-1.2,0-2.4-0.2-2.4-2.1V39c0-0.1,0.1-0.2,0.2-0.2h0.6
				c0.1,0,0.2,0.1,0.2,0.2v6.1c0,0.9,0.2,1.2,1.4,1.2h3.3c0.1,0,0.1,0.1,0.1,0.1V47C203.6,47,203.5,47.1,203.4,47.1z"/>
		</g>
	</g>
	<g>
		<g>
			<path class="st1" d="M202.8,14.9c1.7,0,3.4,0,5,0c0.4,0,0.5,0.2,0.6,0.5l0.1,0.5c0,0.2,0,1.4,0.1,2.4l0,1.2h-0.1
				c-1.2,0-2.1,0.8-2.1,1.8v2.9l-4.6-0.6c-1.1-0.2-2.1-0.3-3.2-0.4c-0.1,0-0.1,0-0.1,0c0,0,0-0.1,0-0.1c0-0.4,0-0.8-0.1-1.2l0-0.1
				c0-0.2,0-0.4-0.1-0.5l-0.1-1.2c-0.1-1.5-0.2-3-0.3-4.4l0-0.2c0,0,0,0,0-0.1c0-0.2,0.1-0.3,0.2-0.4c0.1,0,0.2,0,0.2,0
				C199.8,14.9,201.3,14.9,202.8,14.9 M202.8,13.7c-1.5,0-3,0-4.5,0c-0.2,0-0.4,0-0.5,0.1c-0.5,0.2-0.9,0.6-1,1.3c0,0.1,0,0.2,0,0.3
				l0,0.2c0.1,1.5,0.2,3,0.3,4.5l0.1,1.2c0,0.2,0,0.4,0.1,0.6c0,0.4,0.1,0.7,0.1,1.1c0,0.5,0.2,1.1,1.1,1.3c1.1,0.1,2.1,0.3,3.2,0.4
				l6,0.8v-4.2c0-0.4,0.4-0.7,1-0.7h1.2l-0.1-2.3c0-1.4,0-2.3-0.1-2.5l-0.1-0.5c-0.1-0.9-0.8-1.5-1.7-1.5
				C206.1,13.7,204.5,13.7,202.8,13.7L202.8,13.7z"/>
		</g>
	</g>
	<g>
		<path class="st1" d="M2.8,47.1c-0.2-0.1-0.4-0.2-0.6-0.4c-0.2-0.2-0.3-0.4-0.4-0.6c-0.1-0.2-0.1-0.5-0.1-0.8v-4.1H0.4v-1h1.2v-2
			h1.2v2h1.7v1H2.8V45c0,0.4,0.1,0.7,0.2,0.8c0.2,0.2,0.4,0.3,0.7,0.3c0.3,0,0.5-0.1,0.8-0.2v1.1c-0.1,0.1-0.3,0.1-0.4,0.1
			c-0.1,0-0.3,0-0.5,0C3.3,47.2,3,47.2,2.8,47.1z"/>
		<path class="st1" d="M8.4,40.2h1.1v1.1h0.1c0.1-0.4,0.4-0.7,0.8-0.9c0.4-0.2,0.8-0.4,1.2-0.4c0.3,0,0.6,0,0.8,0.1v1.3
			c-0.3-0.1-0.6-0.2-1-0.2c-0.3,0-0.6,0.1-0.9,0.3c-0.3,0.2-0.5,0.4-0.7,0.8c-0.2,0.3-0.3,0.7-0.3,1v3.9H8.4V40.2z"/>
		<path class="st1" d="M16.7,47.1c-0.4-0.2-0.7-0.5-0.9-0.8c-0.2-0.3-0.3-0.7-0.3-1.2c0-0.7,0.3-1.3,0.8-1.7
			c0.6-0.4,1.3-0.6,2.1-0.6c0.4,0,0.8,0,1.2,0.1c0.4,0.1,0.6,0.2,0.8,0.3v-0.4c0-0.5-0.2-0.9-0.5-1.2C19.4,41.2,19,41,18.4,41
			c-0.4,0-0.7,0.1-1.1,0.3c-0.3,0.2-0.6,0.4-0.8,0.7l-0.9-0.7c0.3-0.4,0.6-0.7,1.1-1c0.5-0.2,1-0.4,1.6-0.4c0.9,0,1.7,0.2,2.2,0.7
			c0.5,0.5,0.8,1.2,0.8,2v4.4h-1.1v-1h-0.1c-0.2,0.3-0.5,0.6-0.9,0.9c-0.4,0.2-0.8,0.4-1.3,0.4C17.5,47.4,17.1,47.3,16.7,47.1z
			 M19.2,46c0.3-0.2,0.6-0.5,0.8-0.8c0.2-0.3,0.3-0.7,0.3-1.1c-0.2-0.1-0.5-0.3-0.8-0.4c-0.3-0.1-0.7-0.1-1-0.1
			c-0.6,0-1.1,0.1-1.4,0.4c-0.3,0.3-0.5,0.6-0.5,1c0,0.4,0.1,0.7,0.4,0.9c0.3,0.2,0.7,0.4,1.1,0.4C18.5,46.3,18.9,46.2,19.2,46z"/>
		<path class="st1" d="M25.6,40.2h1.1v1h0.1c0.2-0.3,0.5-0.6,0.9-0.9c0.4-0.2,0.9-0.4,1.3-0.4c0.8,0,1.5,0.2,1.9,0.7
			c0.4,0.5,0.7,1.1,0.7,2v4.4h-1.2v-4.3c0-0.6-0.2-1.1-0.5-1.4c-0.3-0.3-0.7-0.4-1.3-0.4c-0.4,0-0.7,0.1-1,0.3
			c-0.3,0.2-0.5,0.5-0.7,0.8c-0.2,0.3-0.2,0.7-0.2,1.1v3.9h-1.2V40.2z"/>
		<path class="st1" d="M36.3,46.8c-0.5-0.3-0.9-0.8-1.1-1.3l1-0.5c0.2,0.4,0.4,0.7,0.8,1c0.3,0.2,0.7,0.3,1.1,0.3
			c0.4,0,0.8-0.1,1.1-0.3c0.3-0.2,0.5-0.4,0.5-0.8c0-0.3-0.1-0.5-0.4-0.7c-0.2-0.2-0.6-0.3-1.2-0.5l-0.8-0.2c-0.6-0.1-1-0.4-1.4-0.7
			c-0.4-0.3-0.5-0.7-0.5-1.3c0-0.4,0.1-0.8,0.4-1.1c0.2-0.3,0.6-0.5,1-0.7c0.4-0.2,0.8-0.2,1.3-0.2c0.6,0,1.2,0.1,1.6,0.4
			c0.5,0.3,0.8,0.6,1,1.1l-1,0.5c-0.3-0.6-0.9-0.9-1.6-0.9c-0.4,0-0.7,0.1-1,0.3c-0.3,0.2-0.4,0.4-0.4,0.7c0,0.3,0.1,0.5,0.3,0.6
			c0.2,0.2,0.5,0.3,0.9,0.4l1,0.3c0.7,0.2,1.2,0.4,1.5,0.8c0.3,0.3,0.5,0.8,0.5,1.2c0,0.4-0.1,0.8-0.4,1.1c-0.2,0.3-0.6,0.6-1,0.7
			c-0.4,0.2-0.9,0.3-1.4,0.3C37.4,47.4,36.8,47.2,36.3,46.8z"/>
		<path class="st1" d="M44.6,40.2h1.1v1h0.1c0.2-0.4,0.5-0.7,0.9-0.9c0.4-0.2,0.9-0.4,1.4-0.4c0.6,0,1.2,0.2,1.7,0.5
			c0.5,0.3,0.9,0.8,1.2,1.3c0.3,0.6,0.4,1.2,0.4,1.9c0,0.7-0.1,1.3-0.4,1.9c-0.3,0.6-0.7,1-1.2,1.3c-0.5,0.3-1.1,0.5-1.7,0.5
			c-0.5,0-1-0.1-1.4-0.4c-0.4-0.2-0.7-0.5-0.9-0.9h-0.1l0.1,1v3h-1.2V40.2z M49.1,46c0.4-0.2,0.6-0.5,0.9-0.9
			c0.2-0.4,0.3-0.9,0.3-1.4c0-0.5-0.1-1-0.3-1.4c-0.2-0.4-0.5-0.7-0.9-0.9C48.8,41.1,48.4,41,48,41s-0.8,0.1-1.1,0.3
			c-0.4,0.2-0.6,0.5-0.8,0.9c-0.2,0.4-0.3,0.9-0.3,1.4c0,0.5,0.1,1,0.3,1.4c0.2,0.4,0.5,0.7,0.8,0.9c0.4,0.2,0.7,0.3,1.1,0.3
			S48.8,46.2,49.1,46z"/>
		<path class="st1" d="M56.7,46.9c-0.5-0.3-1-0.8-1.3-1.3C55.1,45,55,44.3,55,43.7c0-0.7,0.2-1.3,0.5-1.9c0.3-0.6,0.7-1,1.3-1.3
			c0.5-0.3,1.2-0.5,1.8-0.5c0.7,0,1.3,0.2,1.8,0.5c0.5,0.3,1,0.8,1.3,1.3c0.3,0.6,0.5,1.2,0.5,1.9c0,0.7-0.2,1.3-0.5,1.9
			c-0.3,0.6-0.7,1-1.3,1.3c-0.5,0.3-1.2,0.5-1.8,0.5C57.9,47.4,57.3,47.2,56.7,46.9z M59.7,46c0.4-0.2,0.7-0.5,0.9-0.9
			c0.2-0.4,0.3-0.9,0.3-1.4c0-0.5-0.1-1-0.3-1.4c-0.2-0.4-0.5-0.7-0.9-0.9C59.4,41.1,59,41,58.6,41c-0.4,0-0.8,0.1-1.2,0.3
			c-0.4,0.2-0.7,0.5-0.9,0.9c-0.2,0.4-0.3,0.9-0.3,1.4c0,0.5,0.1,1,0.3,1.4c0.2,0.4,0.5,0.7,0.9,0.9c0.4,0.2,0.8,0.3,1.2,0.3
			C59,46.3,59.4,46.2,59.7,46z"/>
		<path class="st1" d="M65.9,40.2H67v1.1H67c0.2-0.4,0.4-0.7,0.8-1c0.4-0.2,0.8-0.3,1.3-0.3c0.2,0,0.4,0,0.5,0v1.2
			c-0.2,0-0.4-0.1-0.6-0.1c-0.6,0-1.1,0.2-1.4,0.6c-0.4,0.4-0.6,0.9-0.6,1.5v3.9h-1.2V40.2z M74.1,47.1c-0.2-0.1-0.4-0.2-0.6-0.4
			c-0.2-0.2-0.3-0.4-0.4-0.6c-0.1-0.2-0.1-0.5-0.1-0.8v-4.1h-1.2v-1h1.2v-2h1.2v2h1.7v1h-1.7V45c0,0.4,0.1,0.7,0.2,0.8
			c0.2,0.2,0.4,0.3,0.7,0.3c0.3,0,0.5-0.1,0.8-0.2v1.1c-0.1,0.1-0.3,0.1-0.4,0.1c-0.1,0-0.3,0-0.5,0C74.6,47.2,74.3,47.2,74.1,47.1z
			"/>
		<path class="st1" d="M79.6,46.9c-0.5-0.3-1-0.8-1.3-1.3c-0.3-0.6-0.5-1.2-0.5-1.9c0-0.7,0.2-1.3,0.5-1.9c0.3-0.6,0.7-1,1.3-1.3
			s1.2-0.5,1.8-0.5c0.7,0,1.3,0.2,1.8,0.5s1,0.8,1.3,1.3c0.3,0.6,0.5,1.2,0.5,1.9c0,0.7-0.2,1.3-0.5,1.9c-0.3,0.6-0.7,1-1.3,1.3
			c-0.5,0.3-1.2,0.5-1.8,0.5C80.8,47.4,80.2,47.2,79.6,46.9z M82.7,46c0.4-0.2,0.7-0.5,0.9-0.9c0.2-0.4,0.3-0.9,0.3-1.4
			c0-0.5-0.1-1-0.3-1.4c-0.2-0.4-0.5-0.7-0.9-0.9c-0.4-0.2-0.8-0.3-1.2-0.3c-0.4,0-0.8,0.1-1.2,0.3c-0.4,0.2-0.7,0.5-0.9,0.9
			c-0.2,0.4-0.3,0.9-0.3,1.4c0,0.5,0.1,1,0.3,1.4c0.2,0.4,0.5,0.7,0.9,0.9c0.4,0.2,0.8,0.3,1.2,0.3C81.9,46.3,82.3,46.2,82.7,46z"/>
		<path class="st1" d="M88.8,40.2h1.1v1H90c0.2-0.4,0.5-0.7,0.9-0.9c0.4-0.2,0.9-0.4,1.4-0.4c0.6,0,1.2,0.2,1.7,0.5
			c0.5,0.3,0.9,0.8,1.2,1.3c0.3,0.6,0.4,1.2,0.4,1.9c0,0.7-0.1,1.3-0.4,1.9c-0.3,0.6-0.7,1-1.2,1.3c-0.5,0.3-1.1,0.5-1.7,0.5
			c-0.5,0-1-0.1-1.4-0.4c-0.4-0.2-0.7-0.5-0.9-0.9h-0.1l0.1,1v3h-1.2V40.2z M93.3,46c0.4-0.2,0.6-0.5,0.9-0.9
			c0.2-0.4,0.3-0.9,0.3-1.4c0-0.5-0.1-1-0.3-1.4c-0.2-0.4-0.5-0.7-0.9-0.9C93,41.1,92.6,41,92.2,41c-0.4,0-0.8,0.1-1.1,0.3
			c-0.4,0.2-0.6,0.5-0.8,0.9c-0.2,0.4-0.3,0.9-0.3,1.4c0,0.5,0.1,1,0.3,1.4c0.2,0.4,0.5,0.7,0.8,0.9c0.4,0.2,0.7,0.3,1.1,0.3
			C92.6,46.3,93,46.2,93.3,46z"/>
		<path class="st1" d="M99.4,37.4h1.2v9.7h-1.2V37.4z"/>
		<path class="st1" d="M106.1,46.9c-0.5-0.3-0.9-0.8-1.2-1.3c-0.3-0.6-0.4-1.2-0.4-1.9c0-0.7,0.1-1.3,0.4-1.9c0.3-0.6,0.7-1,1.2-1.3
			c0.5-0.3,1.1-0.5,1.8-0.5c0.7,0,1.3,0.2,1.8,0.5c0.5,0.3,0.9,0.7,1.2,1.3c0.3,0.5,0.4,1.1,0.4,1.8c0,0.1,0,0.3,0,0.4h-5.5
			c0,0.5,0.2,1,0.4,1.3c0.2,0.4,0.5,0.6,0.9,0.8c0.3,0.2,0.7,0.3,1.1,0.3c0.9,0,1.6-0.4,2.1-1.3l1,0.5c-0.3,0.6-0.7,1-1.2,1.3
			c-0.5,0.3-1.1,0.5-1.9,0.5C107.2,47.4,106.6,47.2,106.1,46.9z M109.9,42.9c0-0.3-0.1-0.6-0.2-0.9c-0.1-0.3-0.4-0.5-0.7-0.7
			c-0.3-0.2-0.7-0.3-1.2-0.3c-0.5,0-1,0.2-1.4,0.5c-0.4,0.3-0.6,0.8-0.7,1.4H109.9z"/>
		<path class="st1" d="M115.1,38.7c-0.2-0.2-0.2-0.4-0.2-0.6c0-0.2,0.1-0.4,0.2-0.6c0.2-0.2,0.4-0.2,0.6-0.2c0.2,0,0.4,0.1,0.6,0.2
			c0.2,0.2,0.2,0.4,0.2,0.6c0,0.2-0.1,0.4-0.2,0.6c-0.2,0.2-0.4,0.2-0.6,0.2C115.5,38.9,115.3,38.8,115.1,38.7z M115.1,40.2h1.1v6.9
			h-1.1V40.2z"/>
		<path class="st1" d="M121.9,46.9c-0.5-0.3-0.9-0.8-1.2-1.3c-0.3-0.6-0.4-1.2-0.4-1.9c0-0.7,0.1-1.3,0.4-1.9c0.3-0.6,0.7-1,1.2-1.3
			c0.5-0.3,1.1-0.5,1.7-0.5c0.5,0,1,0.1,1.4,0.4c0.4,0.2,0.7,0.5,1,0.9h0.1l-0.1-1v-2.9h1.2v9.7H126v-1h-0.1c-0.2,0.3-0.5,0.6-1,0.9
			c-0.4,0.2-0.9,0.4-1.4,0.4C122.9,47.4,122.4,47.2,121.9,46.9z M124.8,46c0.3-0.2,0.6-0.5,0.8-0.9c0.2-0.4,0.3-0.9,0.3-1.4
			c0-0.5-0.1-1-0.3-1.4c-0.2-0.4-0.5-0.7-0.8-0.9c-0.3-0.2-0.7-0.3-1.1-0.3c-0.4,0-0.8,0.1-1.1,0.3c-0.4,0.2-0.6,0.5-0.9,0.9
			c-0.2,0.4-0.3,0.9-0.3,1.4c0,0.5,0.1,1,0.3,1.4c0.2,0.4,0.5,0.7,0.9,0.9c0.4,0.2,0.7,0.3,1.1,0.3C124.1,46.3,124.5,46.2,124.8,46z
			"/>
		<path class="st1" d="M131.4,38.7c-0.2-0.2-0.2-0.4-0.2-0.6c0-0.2,0.1-0.4,0.2-0.6c0.2-0.2,0.4-0.2,0.6-0.2c0.2,0,0.4,0.1,0.6,0.2
			c0.2,0.2,0.2,0.4,0.2,0.6c0,0.2-0.1,0.4-0.2,0.6c-0.2,0.2-0.4,0.2-0.6,0.2C131.8,38.9,131.6,38.8,131.4,38.7z M131.5,40.2h1.1v6.9
			h-1.1V40.2z"/>
		<path class="st1" d="M137,40.2h1.1v1h0.1c0.2-0.3,0.5-0.6,0.9-0.9c0.4-0.2,0.9-0.4,1.3-0.4c0.8,0,1.5,0.2,1.9,0.7
			c0.4,0.5,0.7,1.1,0.7,2v4.4h-1.2v-4.3c0-0.6-0.2-1.1-0.5-1.4c-0.3-0.3-0.7-0.4-1.3-0.4c-0.4,0-0.7,0.1-1,0.3
			c-0.3,0.2-0.5,0.5-0.7,0.8c-0.2,0.3-0.2,0.7-0.2,1.1v3.9H137V40.2z"/>
		<path class="st1" d="M148.1,49.7c-0.5-0.4-0.9-0.8-1.1-1.4l1-0.4c0.2,0.4,0.4,0.7,0.8,1c0.4,0.2,0.8,0.4,1.3,0.4
			c0.7,0,1.3-0.2,1.7-0.6c0.4-0.4,0.6-1,0.6-1.8v-0.8h-0.1c-0.2,0.4-0.5,0.6-1,0.9c-0.4,0.2-0.9,0.3-1.4,0.3c-0.6,0-1.1-0.2-1.6-0.5
			c-0.5-0.3-0.9-0.7-1.2-1.3c-0.3-0.6-0.4-1.2-0.4-1.9c0-0.7,0.1-1.3,0.4-1.9c0.3-0.6,0.7-1,1.2-1.3c0.5-0.3,1-0.5,1.6-0.5
			c0.5,0,1,0.1,1.4,0.3c0.4,0.2,0.7,0.5,1,0.9h0.1v-1h1.1v6.7c0,1.1-0.3,2-0.9,2.6c-0.6,0.6-1.4,0.9-2.4,0.9
			C149.3,50.3,148.7,50.1,148.1,49.7z M151.3,45.9c0.3-0.2,0.6-0.5,0.8-0.9c0.2-0.4,0.3-0.9,0.3-1.4c0-0.5-0.1-1-0.3-1.4
			c-0.2-0.4-0.5-0.7-0.8-0.9c-0.3-0.2-0.7-0.3-1.1-0.3c-0.4,0-0.8,0.1-1.1,0.3c-0.3,0.2-0.6,0.5-0.8,0.9c-0.2,0.4-0.3,0.9-0.3,1.4
			c0,0.5,0.1,1,0.3,1.4c0.2,0.4,0.5,0.7,0.8,0.9c0.3,0.2,0.7,0.3,1.1,0.3C150.6,46.2,150.9,46.1,151.3,45.9z"/>
		<path class="st1" d="M159,46.9c-0.5-0.3-0.9-0.8-1.2-1.3c-0.3-0.6-0.4-1.2-0.4-1.9c0-0.7,0.1-1.3,0.4-1.9c0.3-0.6,0.7-1,1.2-1.3
			c0.5-0.3,1.1-0.5,1.8-0.5c0.7,0,1.3,0.2,1.8,0.5c0.5,0.3,0.9,0.7,1.2,1.3c0.3,0.5,0.4,1.1,0.4,1.8c0,0.1,0,0.3,0,0.4h-5.5
			c0,0.5,0.2,1,0.4,1.3c0.2,0.4,0.5,0.6,0.9,0.8c0.3,0.2,0.7,0.3,1.1,0.3c0.9,0,1.6-0.4,2.1-1.3l1,0.5c-0.3,0.6-0.7,1-1.2,1.3
			c-0.5,0.3-1.1,0.5-1.9,0.5C160.1,47.4,159.6,47.2,159,46.9z M162.8,42.9c0-0.3-0.1-0.6-0.2-0.9c-0.1-0.3-0.4-0.5-0.7-0.7
			c-0.3-0.2-0.7-0.3-1.2-0.3c-0.5,0-1,0.2-1.4,0.5c-0.4,0.3-0.6,0.8-0.7,1.4H162.8z"/>
		<path class="st1" d="M167.9,40.2h1.1v1h0.1c0.2-0.3,0.5-0.6,0.9-0.9c0.4-0.2,0.9-0.4,1.3-0.4c0.8,0,1.5,0.2,1.9,0.7
			c0.4,0.5,0.7,1.1,0.7,2v4.4h-1.2v-4.3c0-0.6-0.2-1.1-0.5-1.4c-0.3-0.3-0.7-0.4-1.3-0.4c-0.4,0-0.7,0.1-1,0.3
			c-0.3,0.2-0.5,0.5-0.7,0.8c-0.2,0.3-0.2,0.7-0.2,1.1v3.9h-1.2V40.2z"/>
	</g>
	<g>
		<path class="st0" d="M14.8,0v21.7c0,1.2-0.3,2.1-0.8,2.8c-0.5,0.6-1.2,0.9-2.2,0.9c-0.9,0-1.6-0.2-2.2-0.8
			c-0.6-0.5-1.1-1.3-1.4-2.4l-0.3-1.3l-7.4,3l0.3,1c0.8,2.5,2.2,4.5,4.1,5.9c2,1.4,4.3,2.2,6.9,2.2c2,0,3.9-0.4,5.5-1.3
			c1.7-0.9,3-2.2,4-3.9c1-1.7,1.5-3.8,1.5-6.1V0H14.8z"/>
		<path class="st0" d="M43.3,0h-8.1L23.1,32.4h8.7l2.5-7.2h9.9l2.5,7.2h8.7L43.3,0z M39.2,9.7l3.4,8h-6.8L39.2,9.7z"/>
		<polygon class="st0" points="75.4,0 75.4,15.6 75.5,17.3 65.1,0 56.7,0 56.7,32.4 64.6,32.4 64.6,15.7 64.5,13.9 75.5,32.4 
			83.3,32.4 83.3,0 		"/>
	</g>
	<g>
		<path class="st1" d="M108.2,16.6c-1.5-1.6-3.6-2.8-6.3-3.8l-1.8-0.6c-1.9-0.7-2.9-1.2-3.3-1.6C96.2,10.3,96,9.8,96,9.3
			c0-0.5,0.2-0.9,0.7-1.3c0.6-0.4,1.4-0.6,2.3-0.6c0.9,0,1.6,0.2,2.2,0.7c0.6,0.5,1,1.1,1.2,1.8l0.4,1.2l7-2.9l-0.3-1
			c-0.6-1.9-1.8-3.5-3.5-4.9c-1.7-1.4-4.1-2.1-7-2.1c-2,0-3.8,0.4-5.4,1.2c-1.6,0.8-2.9,2-3.8,3.4c-0.9,1.4-1.4,3.1-1.4,4.8
			c0,2.4,0.8,4.4,2.3,5.9c1.5,1.5,3.2,2.6,5.3,3.3l1.8,0.7c2.5,0.9,3.6,1.6,4.1,2c0.6,0.5,0.8,1.1,0.8,1.8c0,0.7-0.3,1.2-0.8,1.6
			c-0.7,0.5-1.5,0.7-2.5,0.7c-1.2,0-2.1-0.4-2.9-1.1c-0.8-0.8-1.4-1.9-1.8-3.2L94.3,20L87,22.9l0.3,1c0.9,2.9,2.4,5.2,4.6,6.8
			c2.2,1.6,4.7,2.4,7.5,2.4c1.8,0,3.6-0.4,5.2-1.1c1.7-0.7,3.2-1.9,4.3-3.4c1.1-1.5,1.7-3.4,1.7-5.6
			C110.5,20.4,109.7,18.3,108.2,16.6z"/>
		<polygon class="st1" points="114,0 114,19.4 121.6,16.7 121.6,0 		"/>
		<path class="st1" d="M128.6,0v21.7c0,1.2-0.3,2.1-0.8,2.8c-0.5,0.6-1.2,0.9-2.2,0.9c-0.9,0-1.6-0.2-2.2-0.8
			c-0.6-0.5-1.1-1.3-1.4-2.4l-0.3-1.3l-7.4,3l0.3,1c0.8,2.5,2.2,4.5,4.1,5.9c2,1.4,4.3,2.2,6.9,2.2c2,0,3.9-0.4,5.5-1.3
			c1.7-0.9,3-2.2,4-3.9c1-1.7,1.5-3.8,1.5-6.1V0H128.6z"/>
		<polygon class="st1" points="164.6,0 157.2,19.4 149.9,0 140.6,0 140.6,32.4 148.5,32.4 148.5,17.6 154.3,32.4 160.3,32.4 
			166,17.6 166,32.4 173.9,32.4 173.9,0 		"/>
	</g>
</g>
</svg>
