<?xml version="1.0" encoding="UTF-8"?>
<svg width="244px" height="50px" viewBox="0 0 244 50" version="1.1" xmlns="http://www.w3.org/2000/svg" xmlns:xlink="http://www.w3.org/1999/xlink">
    <!-- Generator: Sketch 59.1 (86144) - https://sketch.com -->
    <title>Group 2</title>
    <desc>Created with Sketch.</desc>
    <g id="Page-1" stroke="none" stroke-width="1" fill="none" fill-rule="evenodd">
        <g id="Home" transform="translate(-518.000000, -80.000000)" fill="#2B2B2B">
            <g id="Group-2" transform="translate(518.000000, 80.000000)">
                <path d="M104.954126,7.00108701 C102.935477,5.54300468 100.660374,4.36926979 98.1947912,3.51302057 C95.771774,2.73373757 93.2976786,2.24414688 90.8501865,2.06349005 C90.5011528,2.0613521 90.1297725,2.04745542 89.7583921,2.03142079 C88.8730385,1.99614461 88.0376987,1.96300637 87.143832,2.09555931 C85.8764567,2.2131466 84.588863,2.33287183 83.3959766,2.70915114 L82.7755906,2.87056641 C82.3627093,2.97532599 81.9508921,3.08008557 81.547588,3.20515568 L79.8290228,3.89143783 C78.8787574,4.2260271 77.9955319,4.69958317 77.1421021,5.15603562 L76.5142671,5.49062489 C72.6961793,7.62002371 69.0100433,10.5233607 65.254739,14.359913 C62.347544,17.3466301 59.7649077,20.4391756 57.3610447,23.8107238 L57.0332936,24.2714521 L56.6821317,23.8288963 C55.2136364,21.9763621 53.5195461,20.0735861 51.3508552,17.8426346 C48.977852,15.4310263 46.4611915,13.2524546 43.8711063,11.3689201 C42.7846326,10.550085 41.6109005,9.75369843 40.2924471,8.94234617 C41.505552,9.83814748 42.6207571,10.7713629 43.6348701,11.6521986 C46.2483661,13.9398057 48.5309186,16.5032085 50.41868,18.7095736 C52.1851308,20.7812477 53.9558382,23.1126829 55.6829164,25.6376026 L55.8574332,25.8930877 L55.6701469,26.140021 C53.0981518,29.513707 50.21756,32.7078053 47.1049884,35.6325217 C43.4390708,39.0767602 39.7497424,41.7374397 36.1402235,43.542939 L35.4953625,43.8508039 C34.7228063,44.2238763 33.9225827,44.6087074 33.0840506,44.8545717 L31.5889522,45.3826455 C31.2324696,45.4756464 30.9100391,45.5419228 30.5876086,45.6071303 C30.3907451,45.6466824 30.1949458,45.6873035 29.9991464,45.7311315 C29.0499451,46.0015822 28.0805253,46.0443412 27.1430294,46.0871002 L26.8503945,46.0999279 C26.1565837,46.1907908 25.3797709,46.1191695 24.6295614,46.0507551 C24.2975537,46.0197548 23.9676744,45.9898235 23.6441798,45.9737888 C21.4510139,45.6979932 19.3525554,45.1645745 17.3754074,44.3874295 C15.4865819,43.6060085 13.6594758,42.5263435 11.9409107,41.1772966 C10.427722,40.0313551 9.02839499,38.4866858 7.78549462,36.5913926 C7.28109841,35.8527306 6.87034537,35.0509991 6.47342599,34.275992 L6.2925244,33.9221612 L6.07650661,33.3716389 C5.77642279,32.6030457 5.46569769,31.807728 5.26032118,30.9696514 C4.70803925,28.9909781 4.44732813,26.8979244 4.48776495,24.7621118 C4.51436813,22.3943315 4.8240291,20.3451058 5.43483801,18.4989854 C6.53408123,14.4657416 9.20610421,10.6965347 12.9528955,7.90864705 C14.8310797,6.58846254 16.902935,5.55369444 19.1195116,4.8278602 C19.793104,4.60551334 20.4741453,4.42806344 21.1509301,4.28375177 C20.4688247,4.3735457 19.7739497,4.48365015 19.0609846,4.61513412 C16.6369033,5.1485528 14.3745692,5.91287014 12.3505996,6.88349972 C7.74825017,9.15934816 4.09297383,12.8120368 2.06368358,17.1659732 C1.57737753,18.1333959 1.25707529,19.1360947 0.91655464,20.1986562 L0.731396537,20.7726959 C0.462172398,21.9891898 0.181242862,23.2569945 0.119523494,24.5044887 C-0.149700644,26.9845114 0.0365215861,29.5553971 0.671805423,32.1733176 C1.75508674,37.0328794 4.85382465,41.6423009 9.17630865,44.8246404 C11.1949576,46.2827227 13.4700612,47.4564576 15.9356435,48.3127068 C18.3586608,49.0919898 20.8327561,49.5805115 23.2802483,49.7622373 C23.6303461,49.7633063 24.0038547,49.778272 24.3762991,49.7943066 C25.2595246,49.8295828 26.0938002,49.86379 26.9866028,49.7301681 C28.2550422,49.6125808 29.5426359,49.4928556 30.733394,49.1165763 L31.3644214,48.953023 C31.7741103,48.8482635 32.182735,48.7445729 32.5828468,48.6205717 L34.301412,47.9353585 C35.2516774,47.5997003 36.1338387,47.1272132 36.9872686,46.6696918 L37.6161677,46.3351025 C41.4331913,44.2067727 45.1182632,41.3034357 48.8756958,37.4668833 C51.7839549,34.4769594 54.3665912,31.3844138 56.7693901,28.0150036 L57.0971412,27.5542753 L57.4483031,27.9968311 C58.9178626,29.8504343 60.6108887,31.7521413 62.7795795,33.9830928 C65.1536469,36.3957701 67.6713715,38.5743418 70.2593284,40.4568073 C71.344738,41.2745734 72.517406,42.07096 73.8347953,42.8823123 C72.6227546,41.9865109 71.5096777,41.0543645 70.4945005,40.1735288 C67.8831328,37.8859217 65.6005803,35.3235878 63.7117548,33.1172228 C61.9421116,31.0402038 60.1714042,28.7087686 58.4485825,26.1881248 L58.2730016,25.9326397 L58.4602879,25.6857064 C61.0280265,22.3152273 63.9096824,19.1211291 67.0243823,16.1932057 C70.6924281,12.7489672 74.3817566,10.0872187 77.9902113,8.2827884 L78.6308158,7.97599249 C79.4055003,7.60292011 80.2067879,7.21702002 81.0463841,6.9711557 L82.5414826,6.4430819 C82.9000934,6.34901207 83.2267804,6.2827356 83.5513392,6.21645913 C83.7450103,6.17690704 83.9386814,6.13842393 84.1312884,6.09459594 C85.0804897,5.82414519 86.0499094,5.78138618 86.9874054,5.73862717 L87.2789762,5.72579946 C87.9759794,5.63600554 88.751728,5.70655791 89.5008734,5.77497233 C89.832881,5.80597261 90.1627604,5.83590392 90.486255,5.85193855 C92.6794208,6.12773418 94.7778793,6.66115286 96.7550274,7.43829791 C98.6459811,8.22078784 100.470959,9.29938392 102.189524,10.6484308 C103.722931,11.809338 105.08395,13.3112483 106.34494,15.2354038 C106.851465,15.9751347 107.262218,16.7790042 107.660201,17.5561492 L107.83791,17.9035662 L108.054992,18.4562264 C108.355076,19.2248197 108.665801,20.0190683 108.869049,20.856076 C109.422396,22.8347493 109.683107,24.927803 109.64267,27.0636156 C109.616067,29.42712 109.30747,31.4731388 108.698789,33.3171212 C107.592097,37.3674686 104.921138,41.1313307 101.177539,43.9170804 C99.2993551,45.2372649 97.2285639,46.272033 95.0109232,46.9978672 C94.3383949,47.2202141 93.6584177,47.397664 92.9816329,47.5409067 C93.6626742,47.4521817 94.3575492,47.3420772 95.068386,47.2105933 C97.4914033,46.6771746 99.7537373,45.9139262 101.778771,44.9432967 C106.382185,42.6663792 110.037461,39.0136906 112.066751,34.6597542 C112.550929,33.6944695 112.872295,32.6939086 113.211752,31.6334851 L113.399038,31.0530315 C113.670391,29.8247788 113.950256,28.563388 114.010911,27.3223076 C114.280135,24.841216 114.093913,22.2703303 113.458629,19.6524098 C112.375348,14.7917791 109.27661,10.1834265 104.954126,7.00108701 Z" id="Fill-1"></path>
                <path d="M133.520981,12.5209132 L133.520981,-9.09494702e-13 L135.309683,-9.09494702e-13 L135.309683,12.5209132 L133.520981,12.5209132 Z M145.520913,8.43989434 C145.520913,8.63092075 145.520913,8.9261434 145.503547,9.09980377 L139.060747,9.09980377 C139.234408,10.3501585 140.241638,11.1316302 141.544091,11.1316302 C142.447125,11.1316302 143.332792,10.7148453 143.749577,9.96810566 C144.201094,10.1764981 144.739442,10.4022566 145.208325,10.6106491 C144.496317,12.0346642 142.985472,12.6945736 141.45726,12.6945736 C139.147577,12.6945736 137.289411,11.0100679 137.289411,8.43989434 C137.289411,5.86972075 139.147577,4.23731321 141.45726,4.23731321 C143.766943,4.23731321 145.520913,5.86972075 145.520913,8.43989434 Z M139.060747,7.79735094 L143.766943,7.79735094 C143.593283,6.52963019 142.672883,5.8002566 141.45726,5.8002566 C140.206906,5.8002566 139.234408,6.54699623 139.060747,7.79735094 Z M156.652543,5.99128302 C155.471653,5.99128302 154.690181,6.85958491 154.690181,8.16203774 L154.690181,12.5209132 L152.901479,12.5209132 L152.901479,7.97101132 C152.884113,6.7206566 152.206838,5.99128302 151.251706,5.99128302 C150.209743,5.99128302 149.202513,6.5817283 149.202513,8.16203774 L149.202513,12.5209132 L147.413811,12.5209132 L147.413811,4.41097358 L149.202513,4.41097358 L149.202513,5.62659623 C149.74086,4.49780377 151.112777,4.23731321 151.755321,4.23731321 C153.040408,4.23731321 153.856611,4.82775849 154.308128,5.85235472 C155.072234,4.44570566 156.287857,4.23731321 157.034596,4.23731321 C159.031691,4.23731321 160.160483,5.53976604 160.160483,7.84944906 L160.160483,12.5209132 L158.371781,12.5209132 L158.371781,8.0057434 C158.371781,6.73802264 157.694506,5.99128302 156.652543,5.99128302 Z M164.363064,8.16203774 L164.363064,12.5209132 L162.574362,12.5209132 L162.574362,4.41097358 L164.363064,4.41097358 L164.363064,5.62659623 C164.831947,4.68883019 165.943374,4.23731321 166.846408,4.23731321 C168.80877,4.23731321 169.937562,5.50503396 169.937562,7.79735094 L169.937562,12.5209132 L168.14886,12.5209132 L168.14886,8.0057434 C168.14886,6.7206566 167.488951,5.99128302 166.446989,5.99128302 C165.38766,5.99128302 164.363064,6.56436226 164.363064,8.16203774 Z M174.122777,12.5209132 L172.351442,12.5209132 L172.351442,4.41097358 L174.122777,4.41097358 L174.122777,12.5209132 Z M172.038853,2.12879245 C172.038853,1.48624906 172.594566,1 173.237109,1 C173.897019,1 174.418,1.48624906 174.418,2.12879245 C174.418,2.77133585 173.897019,3.25758491 173.237109,3.25758491 C172.594566,3.25758491 172.038853,2.77133585 172.038853,2.12879245 Z M178.516385,9.01297358 C176.797147,8.54409057 176.17197,7.67578868 176.276166,6.37333585 C176.380362,5.17507925 177.682815,4.23731321 179.176294,4.23731321 C180.617675,4.23731321 182.024325,4.89722264 182.128521,6.63382642 L180.426649,6.63382642 C180.357185,6.02601509 179.801472,5.76552453 179.245758,5.76552453 C178.794242,5.76552453 178.27326,5.93918491 178.0996,6.21704151 C177.960672,6.4428 177.943306,6.70329057 178.030136,6.94641509 C178.134332,7.25900377 178.585849,7.45003019 179.02,7.57159245 L180.270355,7.88418113 C182.024325,8.31833208 182.389011,9.42975849 182.389011,10.2459623 C182.389011,11.8089057 181.017094,12.6945736 179.158928,12.6945736 C177.648083,12.6945736 176.08514,11.7394415 176.050408,10.0375698 L177.700181,10.0375698 C177.787011,10.7322113 178.360091,11.2010943 179.297857,11.2010943 C180.11406,11.2010943 180.739238,10.8364075 180.739238,10.2285962 C180.739238,9.70761509 180.200891,9.41239245 179.610445,9.27346415 L178.516385,9.01297358 Z M183.813026,8.43989434 C183.813026,5.86972075 185.810121,4.23731321 188.13717,4.23731321 C189.422257,4.23731321 190.585781,4.7409283 191.349887,5.64396226 L189.960604,6.75538868 C189.526453,6.25177358 188.849177,5.97391698 188.13717,5.97391698 C186.782619,5.97391698 185.584362,6.92904906 185.584362,8.43989434 C185.584362,9.95073962 186.782619,10.9753358 188.13717,10.9753358 C188.849177,10.9753358 189.526453,10.6801132 189.960604,10.1764981 L191.367253,11.2705585 C190.603147,12.1735925 189.439623,12.6945736 188.13717,12.6945736 C185.810121,12.6945736 183.813026,11.0100679 183.813026,8.43989434 Z M199.581389,12.5209132 L199.581389,11.3573887 C199.043042,12.2430566 197.862151,12.6945736 196.854921,12.6945736 C194.6668,12.6945736 192.73917,11.0448 192.73917,8.45726038 C192.73917,5.86972075 194.6668,4.23731321 196.854921,4.23731321 C197.827419,4.23731321 199.025675,4.63673208 199.581389,5.55713208 L199.581389,4.41097358 L201.352725,4.41097358 L201.352725,12.5209132 L199.581389,12.5209132 Z M194.57997,8.43989434 C194.57997,9.93337358 195.708762,10.9579698 197.063313,10.9579698 C198.383132,10.9579698 199.564023,10.0375698 199.564023,8.43989434 C199.564023,6.84221887 198.278936,5.97391698 197.063313,5.97391698 C195.708762,5.97391698 194.57997,6.94641509 194.57997,8.43989434 Z M210.174672,12.5209132 L210.174672,11.3573887 C209.636325,12.2430566 208.455434,12.6945736 207.448204,12.6945736 C205.260083,12.6945736 203.332453,11.0448 203.332453,8.45726038 C203.332453,5.86972075 205.260083,4.23731321 207.448204,4.23731321 C208.420702,4.23731321 209.618958,4.63673208 210.174672,5.55713208 L210.174672,4.41097358 L211.946008,4.41097358 L211.946008,12.5209132 L210.174672,12.5209132 Z M205.173253,8.43989434 C205.173253,9.93337358 206.302045,10.9579698 207.656596,10.9579698 C208.976415,10.9579698 210.157306,10.0375698 210.157306,8.43989434 C210.157306,6.84221887 208.872219,5.97391698 207.656596,5.97391698 C206.302045,5.97391698 205.173253,6.94641509 205.173253,8.43989434 Z M216.877962,1.33718491 L216.877962,4.41097358 L218.5972,4.41097358 L218.5972,5.88708679 L216.877962,5.88708679 L216.877962,12.5209132 L215.08926,12.5209132 L215.08926,5.88708679 L213.630513,5.88708679 L213.630513,4.41097358 L215.08926,4.41097358 L215.08926,1.33718491 L216.877962,1.33718491 Z M137.219947,28.1277811 C138.574498,28.1277811 139.685925,27.137917 139.685925,25.6097057 C139.685925,24.1162264 138.574498,23.1610943 137.219947,23.1610943 C135.882762,23.1610943 134.771336,24.1162264 134.771336,25.6097057 C134.771336,27.137917 135.882762,28.1277811 137.219947,28.1277811 Z M137.219947,29.8643849 C134.92763,29.8643849 133,28.1798792 133,25.6097057 C133,23.0395321 134.92763,21.4071245 137.219947,21.4071245 C139.52963,21.4071245 141.474626,23.0395321 141.474626,25.6097057 C141.474626,28.1798792 139.52963,29.8643849 137.219947,29.8643849 Z M152.693087,23.1610943 C151.512196,23.1610943 150.730725,24.0293962 150.730725,25.3318491 L150.730725,29.6907245 L148.942023,29.6907245 L148.942023,25.1408226 C148.924657,23.8904679 148.247381,23.1610943 147.292249,23.1610943 C146.250287,23.1610943 145.243057,23.7515396 145.243057,25.3318491 L145.243057,29.6907245 L143.454355,29.6907245 L143.454355,21.5807849 L145.243057,21.5807849 L145.243057,22.7964075 C145.781404,21.6676151 147.153321,21.4071245 147.795864,21.4071245 C149.080951,21.4071245 149.897155,21.9975698 150.348672,23.022166 C151.112777,21.615517 152.3284,21.4071245 153.07514,21.4071245 C155.072234,21.4071245 156.201026,22.7095774 156.201026,25.0192604 L156.201026,29.6907245 L154.412325,29.6907245 L154.412325,25.1755547 C154.412325,23.907834 153.735049,23.1610943 152.693087,23.1610943 Z M164.918777,25.6444377 C164.918777,24.0293962 163.755253,23.1437283 162.418068,23.1437283 C161.063517,23.1437283 159.952091,24.1683245 159.952091,25.6444377 C159.952091,27.1726491 161.063517,28.1451472 162.418068,28.1451472 C163.633691,28.1451472 164.918777,27.2247472 164.918777,25.6444377 Z M159.969457,30.7153208 C160.403608,31.5662566 161.35874,32.0698717 162.244408,32.0698717 C163.894181,32.0698717 164.953509,31.1494717 164.953509,28.8745208 L164.953509,28.4577358 C164.484626,29.3607698 163.303736,29.8643849 162.209675,29.8643849 C160.021555,29.8643849 158.111291,28.2319774 158.111291,25.6618038 C158.111291,23.0742642 160.021555,21.4071245 162.209675,21.4071245 C163.303736,21.4071245 164.449894,21.8933736 164.953509,22.7790415 L164.953509,21.5807849 L166.707479,21.5807849 L166.707479,28.4924679 C166.707479,32.226166 164.970875,33.7370113 162.244408,33.7370113 C160.681464,33.7370113 159.257449,32.9208075 158.493343,31.4620604 C158.805932,31.3231321 159.656868,30.8542491 159.969457,30.7153208 Z M176.918709,25.6097057 C176.918709,25.8007321 176.918709,26.0959547 176.901343,26.2696151 L170.458543,26.2696151 C170.632204,27.5199698 171.639434,28.3014415 172.941887,28.3014415 C173.844921,28.3014415 174.730589,27.8846566 175.147374,27.137917 C175.598891,27.3463094 176.137238,27.5720679 176.606121,27.7804604 C175.894113,29.2044755 174.383268,29.8643849 172.855057,29.8643849 C170.545374,29.8643849 168.687208,28.1798792 168.687208,25.6097057 C168.687208,23.0395321 170.545374,21.4071245 172.855057,21.4071245 C175.16474,21.4071245 176.918709,23.0395321 176.918709,25.6097057 Z M170.458543,24.9671623 L175.16474,24.9671623 C174.991079,23.6994415 174.070679,22.9700679 172.855057,22.9700679 C171.604702,22.9700679 170.632204,23.7168075 170.458543,24.9671623 Z M181.173389,29.6907245 L177.787011,21.5807849 L179.679909,21.5807849 L182.006958,27.4157736 L184.299275,21.5807849 L186.20954,21.5807849 L182.823162,29.6907245 L181.173389,29.6907245 Z M189.456989,29.6907245 L187.685653,29.6907245 L187.685653,21.5807849 L189.456989,21.5807849 L189.456989,29.6907245 Z M187.373064,19.2986038 C187.373064,18.6560604 187.928777,18.1698113 188.571321,18.1698113 C189.23123,18.1698113 189.752211,18.6560604 189.752211,19.2986038 C189.752211,19.9411472 189.23123,20.4273962 188.571321,20.4273962 C187.928777,20.4273962 187.373064,19.9411472 187.373064,19.2986038 Z M193.7464,25.3318491 L193.7464,29.6907245 L191.957698,29.6907245 L191.957698,21.5807849 L193.7464,21.5807849 L193.7464,22.7964075 C194.215283,21.8586415 195.326709,21.4071245 196.229743,21.4071245 C198.192106,21.4071245 199.320898,22.6748453 199.320898,24.9671623 L199.320898,29.6907245 L197.532196,29.6907245 L197.532196,25.1755547 C197.532196,23.8904679 196.872287,23.1610943 195.830325,23.1610943 C194.770996,23.1610943 193.7464,23.7341736 193.7464,25.3318491 Z M208.038649,25.6444377 C208.038649,24.0293962 206.875125,23.1437283 205.53794,23.1437283 C204.183389,23.1437283 203.071962,24.1683245 203.071962,25.6444377 C203.071962,27.1726491 204.183389,28.1451472 205.53794,28.1451472 C206.753562,28.1451472 208.038649,27.2247472 208.038649,25.6444377 Z M203.089328,30.7153208 C203.523479,31.5662566 204.478611,32.0698717 205.364279,32.0698717 C207.014053,32.0698717 208.073381,31.1494717 208.073381,28.8745208 L208.073381,28.4577358 C207.604498,29.3607698 206.423608,29.8643849 205.329547,29.8643849 C203.141426,29.8643849 201.231162,28.2319774 201.231162,25.6618038 C201.231162,23.0742642 203.141426,21.4071245 205.329547,21.4071245 C206.423608,21.4071245 207.569766,21.8933736 208.073381,22.7790415 L208.073381,21.5807849 L209.827351,21.5807849 L209.827351,28.4924679 C209.827351,32.226166 208.090747,33.7370113 205.364279,33.7370113 C203.801336,33.7370113 202.377321,32.9208075 201.613215,31.4620604 C201.925804,31.3231321 202.77674,30.8542491 203.089328,30.7153208 Z M214.220958,26.1827849 C212.501721,25.7139019 211.876543,24.8456 211.98074,23.5431472 C212.084936,22.3448906 213.387389,21.4071245 214.880868,21.4071245 C216.322249,21.4071245 217.728898,22.067034 217.833094,23.8036377 L216.131223,23.8036377 C216.061758,23.1958264 215.506045,22.9353358 214.950332,22.9353358 C214.498815,22.9353358 213.977834,23.1089962 213.804174,23.3868528 C213.665245,23.6126113 213.647879,23.8731019 213.734709,24.1162264 C213.838906,24.4288151 214.290423,24.6198415 214.724574,24.7414038 L215.974928,25.0539925 C217.728898,25.4881434 218.093585,26.5995698 218.093585,27.4157736 C218.093585,28.978717 216.721668,29.8643849 214.863502,29.8643849 C213.352657,29.8643849 211.789713,28.9092528 211.754981,27.2073811 L213.404755,27.2073811 C213.491585,27.9020226 214.064664,28.3709057 215.00243,28.3709057 C215.818634,28.3709057 216.443811,28.0062189 216.443811,27.3984075 C216.443811,26.8774264 215.905464,26.5822038 215.315019,26.4432755 L214.220958,26.1827849 Z M219.934385,26.3911774 L219.934385,24.7761358 L225.995132,24.7761358 L225.995132,26.3911774 L219.934385,26.3911774 Z M133,42.779517 C133,40.2093434 134.997094,38.5769358 137.324143,38.5769358 C138.60923,38.5769358 139.772755,39.0805509 140.53686,39.9835849 L139.147577,41.0950113 C138.713426,40.5913962 138.036151,40.3135396 137.324143,40.3135396 C135.969592,40.3135396 134.771336,41.2686717 134.771336,42.779517 C134.771336,44.2903623 135.969592,45.3149585 137.324143,45.3149585 C138.036151,45.3149585 138.713426,45.0197358 139.147577,44.5161208 L140.554226,45.6101811 C139.790121,46.5132151 138.626596,47.0341962 137.324143,47.0341962 C134.997094,47.0341962 133,45.3496906 133,42.779517 Z M146.146091,45.2975925 C147.500642,45.2975925 148.612068,44.3077283 148.612068,42.779517 C148.612068,41.2860377 147.500642,40.3309057 146.146091,40.3309057 C144.808906,40.3309057 143.697479,41.2860377 143.697479,42.779517 C143.697479,44.3077283 144.808906,45.2975925 146.146091,45.2975925 Z M146.146091,47.0341962 C143.853774,47.0341962 141.926143,45.3496906 141.926143,42.779517 C141.926143,40.2093434 143.853774,38.5769358 146.146091,38.5769358 C148.455774,38.5769358 150.40077,40.2093434 150.40077,42.779517 C150.40077,45.3496906 148.455774,47.0341962 146.146091,47.0341962 Z M161.61923,40.3309057 C160.43834,40.3309057 159.656868,41.1992075 159.656868,42.5016604 L159.656868,46.8605358 L157.868166,46.8605358 L157.868166,42.310634 C157.8508,41.0602792 157.173525,40.3309057 156.218392,40.3309057 C155.17643,40.3309057 154.1692,40.9213509 154.1692,42.5016604 L154.1692,46.8605358 L152.380498,46.8605358 L152.380498,38.7505962 L154.1692,38.7505962 L154.1692,39.9662189 C154.707547,38.8374264 156.079464,38.5769358 156.722008,38.5769358 C158.007094,38.5769358 158.823298,39.1673811 159.274815,40.1919774 C160.038921,38.7853283 161.254543,38.5769358 162.001283,38.5769358 C163.998377,38.5769358 165.12717,39.8793887 165.12717,42.1890717 L165.12717,46.8605358 L163.338468,46.8605358 L163.338468,42.345366 C163.338468,41.0776453 162.661192,40.3309057 161.61923,40.3309057 Z M176.779781,40.3309057 C175.598891,40.3309057 174.817419,41.1992075 174.817419,42.5016604 L174.817419,46.8605358 L173.028717,46.8605358 L173.028717,42.310634 C173.011351,41.0602792 172.334075,40.3309057 171.378943,40.3309057 C170.336981,40.3309057 169.329751,40.9213509 169.329751,42.5016604 L169.329751,46.8605358 L167.541049,46.8605358 L167.541049,38.7505962 L169.329751,38.7505962 L169.329751,39.9662189 C169.868098,38.8374264 171.240015,38.5769358 171.882558,38.5769358 C173.167645,38.5769358 173.983849,39.1673811 174.435366,40.1919774 C175.199472,38.7853283 176.415094,38.5769358 177.161834,38.5769358 C179.158928,38.5769358 180.287721,39.8793887 180.287721,42.1890717 L180.287721,46.8605358 L178.499019,46.8605358 L178.499019,42.345366 C178.499019,41.0776453 177.821743,40.3309057 176.779781,40.3309057 Z M188.171902,43.1094717 L188.171902,38.7505962 L189.960604,38.7505962 L189.960604,46.8605358 L188.171902,46.8605358 L188.171902,45.6796453 C187.703019,46.6000453 186.608958,47.0341962 185.758023,47.0341962 C183.778294,47.0341962 182.597404,45.7664755 182.61477,43.4741585 L182.61477,38.7505962 L184.403472,38.7505962 L184.403472,43.265766 C184.403472,44.6029509 185.115479,45.2975925 186.087977,45.2975925 C187.12994,45.2975925 188.171902,44.7245132 188.171902,43.1094717 Z M194.250015,42.5016604 L194.250015,46.8605358 L192.461313,46.8605358 L192.461313,38.7505962 L194.250015,38.7505962 L194.250015,39.9662189 C194.718898,39.0284528 195.830325,38.5769358 196.733358,38.5769358 C198.695721,38.5769358 199.824513,39.8446566 199.824513,42.1369736 L199.824513,46.8605358 L198.035811,46.8605358 L198.035811,42.345366 C198.035811,41.0602792 197.375902,40.3309057 196.33394,40.3309057 C195.274611,40.3309057 194.250015,40.9039849 194.250015,42.5016604 Z M204.009728,46.8605358 L202.238392,46.8605358 L202.238392,38.7505962 L204.009728,38.7505962 L204.009728,46.8605358 Z M201.925804,36.4684151 C201.925804,35.8258717 202.481517,35.3396226 203.12406,35.3396226 C203.78397,35.3396226 204.304951,35.8258717 204.304951,36.4684151 C204.304951,37.1109585 203.78397,37.5972075 203.12406,37.5972075 C202.481517,37.5972075 201.925804,37.1109585 201.925804,36.4684151 Z M205.989457,42.779517 C205.989457,40.2093434 207.986551,38.5769358 210.3136,38.5769358 C211.598687,38.5769358 212.762211,39.0805509 213.526317,39.9835849 L212.137034,41.0950113 C211.702883,40.5913962 211.025608,40.3135396 210.3136,40.3135396 C208.959049,40.3135396 207.760792,41.2686717 207.760792,42.779517 C207.760792,44.2903623 208.959049,45.3149585 210.3136,45.3149585 C211.025608,45.3149585 211.702883,45.0197358 212.137034,44.5161208 L213.543683,45.6101811 C212.779577,46.5132151 211.616053,47.0341962 210.3136,47.0341962 C207.986551,47.0341962 205.989457,45.3496906 205.989457,42.779517 Z M221.757819,46.8605358 L221.757819,45.6970113 C221.219472,46.5826792 220.038581,47.0341962 219.031351,47.0341962 C216.84323,47.0341962 214.9156,45.3844226 214.9156,42.796883 C214.9156,40.2093434 216.84323,38.5769358 219.031351,38.5769358 C220.003849,38.5769358 221.202106,38.9763547 221.757819,39.8967547 L221.757819,38.7505962 L223.529155,38.7505962 L223.529155,46.8605358 L221.757819,46.8605358 Z M216.7564,42.779517 C216.7564,44.2729962 217.885192,45.2975925 219.239743,45.2975925 C220.559562,45.2975925 221.740453,44.3771925 221.740453,42.779517 C221.740453,41.1818415 220.455366,40.3135396 219.239743,40.3135396 C217.885192,40.3135396 216.7564,41.2860377 216.7564,42.779517 Z M228.461109,35.6768075 L228.461109,38.7505962 L230.180347,38.7505962 L230.180347,40.2267094 L228.461109,40.2267094 L228.461109,46.8605358 L226.672408,46.8605358 L226.672408,40.2267094 L225.21366,40.2267094 L225.21366,38.7505962 L226.672408,38.7505962 L226.672408,35.6768075 L228.461109,35.6768075 Z M233.636189,46.8605358 L231.864853,46.8605358 L231.864853,38.7505962 L233.636189,38.7505962 L233.636189,46.8605358 Z M231.552264,35.4684151 C231.552264,34.8258717 232.107977,34.3396226 232.750521,34.3396226 C233.41043,34.3396226 233.931411,34.8258717 233.931411,35.4684151 C233.931411,36.1109585 233.41043,36.5972075 232.750521,36.5972075 C232.107977,36.5972075 231.552264,36.1109585 231.552264,35.4684151 Z M243.847419,42.779517 C243.847419,42.9705434 243.847419,43.265766 243.830053,43.4394264 L237.387253,43.4394264 C237.560913,44.6897811 238.568143,45.4712528 239.870596,45.4712528 C240.77363,45.4712528 241.659298,45.0544679 242.076083,44.3077283 C242.5276,44.5161208 243.065947,44.7418792 243.53483,44.9502717 C242.822823,46.3742868 241.311977,47.0341962 239.783766,47.0341962 C237.474083,47.0341962 235.615917,45.3496906 235.615917,42.779517 C235.615917,40.2093434 237.474083,38.5769358 239.783766,38.5769358 C242.093449,38.5769358 243.847419,40.2093434 243.847419,42.779517 Z M237.387253,42.1369736 L242.093449,42.1369736 C241.919789,40.8692528 240.999389,40.1398792 239.783766,40.1398792 C238.533411,40.1398792 237.560913,40.8866189 237.387253,42.1369736 Z" id="lemniscaatomgevings-communicatie" fill-rule="nonzero"></path>
            </g>
        </g>
    </g>
</svg>